{"glyphs":{"0":{"ha":779,"x_min":0,"x_max":0,"o":"m 389 899 b 56 451 171 899 56 707 b 389 -10 56 196 171 -10 b 724 451 608 -10 724 196 b 389 899 724 707 608 899 z m 389 29 b 143 451 222 29 143 226 b 389 860 143 675 222 860 b 636 451 557 860 636 675 b 389 29 636 226 557 29 z "},"1":{"ha":354,"x_min":0,"x_max":0,"o":"m 229 113 l 229 894 l 225 894 l 28 753 l 36 735 l 151 779 l 151 113 b 43 15 151 32 89 15 l 43 0 l 328 0 l 328 15 b 229 113 286 15 229 32 z "},"2":{"ha":735,"x_min":0,"x_max":0,"o":"m 667 188 b 553 61 660 136 633 63 l 142 53 b 279 258 156 126 197 197 l 472 407 b 658 672 581 490 658 547 b 383 899 658 783 581 899 b 81 617 197 899 81 782 b 103 485 81 575 88 531 l 213 499 b 172 664 182 563 172 617 b 383 857 172 789 261 857 b 571 672 514 857 571 774 b 422 456 571 568 514 529 l 233 304 b 49 0 115 210 57 113 l 657 0 l 663 43 l 681 186 z "},"3":{"ha":696,"x_min":0,"x_max":0,"o":"m 428 479 b 621 688 546 501 621 563 b 353 899 621 803 531 899 b 67 642 176 899 67 782 b 75 567 67 618 71 588 l 172 581 b 154 681 163 610 154 647 b 353 857 154 789 232 857 b 535 678 475 857 535 779 b 326 507 535 553 453 507 l 310 507 l 310 458 l 326 458 b 561 238 489 458 561 372 b 347 33 561 115 493 33 b 140 226 208 33 140 108 b 160 343 140 274 151 318 l 63 357 b 56 274 60 340 56 300 b 347 -10 56 124 131 -10 b 647 239 544 -10 647 103 b 428 479 647 374 569 456 z "},"4":{"ha":686,"x_min":0,"x_max":0,"o":"m 328 0 l 640 0 l 640 15 b 540 113 599 15 540 32 l 540 233 l 651 268 l 651 281 l 540 281 l 540 772 b 639 869 540 853 597 869 l 639 885 l 517 885 l 21 238 l 21 229 l 463 229 l 463 113 b 328 15 463 32 385 15 z m 139 281 l 463 764 l 463 281 z "},"5":{"ha":672,"x_min":0,"x_max":0,"o":"m 331 599 b 140 546 258 599 185 578 l 160 833 l 488 824 b 557 704 568 822 568 756 l 571 701 l 604 842 l 615 885 l 107 885 l 89 458 l 94 458 b 317 557 135 501 217 557 b 536 301 465 557 536 449 b 326 33 536 108 450 33 b 135 226 201 33 135 100 b 167 360 135 276 146 322 l 57 375 b 42 243 42 328 42 285 b 326 -10 42 107 138 -10 b 624 301 515 -10 624 96 b 331 599 624 476 515 599 z "},"6":{"ha":706,"x_min":0,"x_max":0,"o":"m 385 857 b 138 414 222 857 142 710 b 389 556 190 500 271 556 b 650 282 557 556 650 443 b 361 -7 650 115 532 -7 b 56 404 172 -7 56 103 b 382 899 56 703 164 899 b 635 689 536 899 635 794 b 633 654 635 678 633 665 l 529 667 b 535 718 533 686 535 703 b 385 857 535 803 482 857 z m 147 263 b 361 35 147 121 238 35 b 563 281 485 35 563 126 b 361 514 563 424 497 514 b 147 263 250 514 147 432 z "},"7":{"ha":649,"x_min":0,"x_max":0,"o":"m 21 885 l 56 683 l 71 686 b 144 822 61 744 64 821 l 564 829 b 236 0 379 606 264 393 l 319 0 b 644 863 333 389 449 635 l 644 885 z "},"8":{"ha":713,"x_min":0,"x_max":0,"o":"m 56 239 b 356 -10 56 79 172 -10 b 657 239 539 -10 657 79 b 461 479 657 379 582 454 b 629 678 571 499 629 571 b 356 899 629 807 536 899 b 83 678 175 899 83 807 b 250 479 83 572 140 500 b 56 239 140 456 56 379 z m 143 239 b 344 482 143 378 210 451 b 169 678 233 513 169 564 b 356 857 169 785 242 857 b 542 678 469 857 542 785 b 367 482 542 565 476 513 b 569 239 499 451 569 378 b 356 33 569 107 490 33 b 143 239 221 33 143 107 z "},"9":{"ha":706,"x_min":0,"x_max":0,"o":"m 321 35 b 568 478 483 35 564 182 b 317 336 515 392 435 336 b 56 610 149 336 56 449 b 344 899 56 776 174 899 b 650 488 533 899 650 789 b 324 -7 650 189 542 -7 b 71 203 169 -7 71 97 b 72 238 71 214 72 226 l 176 225 b 171 174 172 206 171 189 b 321 35 171 89 224 35 z m 558 629 b 344 857 558 771 468 857 b 143 611 221 857 143 765 b 344 378 143 468 208 378 b 558 629 456 378 558 460 z "}," ":{"ha":306,"x_min":0,"x_max":0,"o":""},"A":{"ha":858,"x_min":0,"x_max":0,"o":"m 717 108 l 485 885 l 210 885 l 210 869 b 344 776 279 869 367 854 l 143 108 b 11 15 121 31 53 15 l 11 0 l 299 0 l 299 15 b 200 108 243 15 178 31 l 251 279 l 583 279 l 635 108 b 533 15 657 31 589 15 l 533 0 l 847 0 l 847 15 b 717 108 806 15 739 31 z m 267 331 l 418 833 l 568 331 z "},"Á":{"ha":858,"x_min":0,"x_max":0,"o":"m 517 1090 l 451 1156 b 289 961 418 1078 379 1010 l 297 947 b 517 1090 390 968 458 1017 z m 717 108 l 485 885 l 210 885 l 210 869 b 344 776 279 869 367 854 l 143 108 b 11 15 121 31 53 15 l 11 0 l 299 0 l 299 15 b 200 108 243 15 178 31 l 251 279 l 583 279 l 635 108 b 533 15 657 31 589 15 l 533 0 l 847 0 l 847 15 b 717 108 806 15 739 31 z m 267 331 l 418 833 l 568 331 z "},"Ă":{"ha":858,"x_min":0,"x_max":0,"o":"m 403 951 b 539 1101 476 951 543 992 l 457 1101 b 403 979 476 1028 453 979 b 347 1101 351 979 328 1028 l 265 1101 b 403 951 261 1001 328 951 z m 717 108 l 485 885 l 210 885 l 210 869 b 344 776 279 869 367 854 l 143 108 b 11 15 121 31 53 15 l 11 0 l 299 0 l 299 15 b 200 108 243 15 178 31 l 251 279 l 583 279 l 635 108 b 533 15 657 31 589 15 l 533 0 l 847 0 l 847 15 b 717 108 806 15 739 31 z m 267 331 l 418 833 l 568 331 z "},"Â":{"ha":858,"x_min":0,"x_max":0,"o":"m 403 1039 l 465 953 l 549 953 l 417 1103 l 386 1103 l 256 953 l 338 953 z m 717 108 l 485 885 l 210 885 l 210 869 b 344 776 279 869 367 854 l 143 108 b 11 15 121 31 53 15 l 11 0 l 299 0 l 299 15 b 200 108 243 15 178 31 l 251 279 l 583 279 l 635 108 b 533 15 657 31 589 15 l 533 0 l 847 0 l 847 15 b 717 108 806 15 739 31 z m 267 331 l 418 833 l 568 331 z "},"Ä":{"ha":858,"x_min":0,"x_max":0,"o":"m 379 1026 l 299 1107 l 218 1026 l 299 946 z m 586 1026 l 507 1107 l 426 1026 l 507 946 z m 717 108 l 485 885 l 210 885 l 210 869 b 344 776 279 869 367 854 l 143 108 b 11 15 121 31 53 15 l 11 0 l 299 0 l 299 15 b 200 108 243 15 178 31 l 251 279 l 583 279 l 635 108 b 533 15 657 31 589 15 l 533 0 l 847 0 l 847 15 b 717 108 806 15 739 31 z m 267 331 l 418 833 l 568 331 z "},"À":{"ha":858,"x_min":0,"x_max":0,"o":"m 508 947 l 517 961 b 354 1156 426 1010 388 1078 l 289 1090 b 508 947 347 1017 415 968 z m 717 108 l 485 885 l 210 885 l 210 869 b 344 776 279 869 367 854 l 143 108 b 11 15 121 31 53 15 l 11 0 l 299 0 l 299 15 b 200 108 243 15 178 31 l 251 279 l 583 279 l 635 108 b 533 15 657 31 589 15 l 533 0 l 847 0 l 847 15 b 717 108 806 15 739 31 z m 267 331 l 418 833 l 568 331 z "},"Ā":{"ha":858,"x_min":0,"x_max":0,"o":"m 589 1049 l 215 1049 l 215 1010 l 589 1010 z m 717 108 l 485 885 l 210 885 l 210 869 b 344 776 279 869 367 854 l 143 108 b 11 15 121 31 53 15 l 11 0 l 299 0 l 299 15 b 200 108 243 15 178 31 l 251 279 l 583 279 l 635 108 b 533 15 657 31 589 15 l 533 0 l 847 0 l 847 15 b 717 108 806 15 739 31 z m 267 331 l 418 833 l 568 331 z "},"Ą":{"ha":858,"x_min":0,"x_max":0,"o":"m 710 0 l 847 0 l 847 15 b 717 108 806 15 739 31 l 485 885 l 210 885 l 210 869 b 344 776 279 869 367 854 l 143 108 b 11 15 121 31 53 15 l 11 0 l 299 0 l 299 15 b 200 108 243 15 178 31 l 251 279 l 583 279 l 635 108 b 533 15 657 31 589 15 l 533 0 l 678 0 b 564 -156 615 -39 564 -93 b 688 -268 564 -224 611 -268 b 790 -239 726 -268 758 -257 l 750 -162 b 679 -193 728 -182 708 -193 b 619 -136 642 -193 619 -169 b 710 0 619 -82 651 -43 z m 267 331 l 418 833 l 568 331 z "},"Å":{"ha":858,"x_min":0,"x_max":0,"o":"m 403 946 b 483 1026 447 946 483 982 b 403 1107 483 1071 447 1107 b 322 1026 358 1107 322 1071 b 403 946 322 982 358 946 z m 403 1074 b 450 1026 429 1074 450 1053 b 403 981 450 1001 429 981 b 357 1026 376 981 357 1001 b 403 1074 357 1053 376 1074 z m 717 108 l 485 885 l 210 885 l 210 869 b 344 776 279 869 367 854 l 143 108 b 11 15 121 31 53 15 l 11 0 l 299 0 l 299 15 b 200 108 243 15 178 31 l 251 279 l 583 279 l 635 108 b 533 15 657 31 589 15 l 533 0 l 847 0 l 847 15 b 717 108 806 15 739 31 z m 267 331 l 418 833 l 568 331 z "},"Ã":{"ha":858,"x_min":0,"x_max":0,"o":"m 313 1000 b 450 972 368 1000 386 972 b 589 1043 492 972 547 1000 l 581 1051 b 492 1018 554 1035 529 1018 b 354 1046 438 1018 418 1046 b 217 975 313 1046 258 1018 l 225 968 b 313 1000 251 983 276 1000 z m 717 108 l 485 885 l 210 885 l 210 869 b 344 776 279 869 367 854 l 143 108 b 11 15 121 31 53 15 l 11 0 l 299 0 l 299 15 b 200 108 243 15 178 31 l 251 279 l 583 279 l 635 108 b 533 15 657 31 589 15 l 533 0 l 847 0 l 847 15 b 717 108 806 15 739 31 z m 267 331 l 418 833 l 568 331 z "},"Æ":{"ha":1343,"x_min":0,"x_max":0,"o":"m 1288 165 b 1158 50 1274 118 1239 50 l 785 50 l 785 453 l 1085 453 b 1182 378 1165 453 1182 408 l 1197 378 l 1197 576 l 1182 576 b 1085 501 1182 546 1165 501 l 785 501 l 785 835 l 1179 835 b 1278 719 1253 835 1274 768 l 1292 721 l 1281 854 l 1278 885 l 522 885 l 522 869 b 617 786 585 869 657 857 l 225 99 b 69 15 185 28 111 15 l 69 0 l 378 0 l 378 15 b 286 99 315 15 246 28 l 389 279 l 701 279 l 701 72 b 590 10 701 21 636 10 l 590 0 l 1257 0 l 1265 32 l 1301 161 z m 418 331 l 701 829 l 701 331 z "},"B":{"ha":776,"x_min":0,"x_max":0,"o":"m 485 488 b 686 679 597 504 686 544 b 429 885 686 810 601 885 l 49 885 l 49 869 b 149 772 90 869 149 853 l 149 113 b 49 15 149 32 90 15 l 49 0 l 453 0 b 735 250 644 0 735 111 b 485 488 735 439 604 475 z m 396 833 b 600 679 567 833 600 775 b 363 508 600 582 543 508 l 231 508 l 231 833 z m 435 51 l 231 51 l 231 461 l 363 461 b 650 250 572 461 650 397 b 435 51 650 128 600 51 z "},"C":{"ha":792,"x_min":0,"x_max":0,"o":"m 457 49 b 129 446 267 49 129 181 b 429 860 129 729 253 860 b 636 650 557 860 636 775 b 618 538 636 615 631 578 l 743 522 l 743 550 b 426 899 743 724 663 899 b 42 446 193 899 42 714 b 428 -10 42 157 183 -10 b 750 267 665 -10 728 150 l 729 271 b 457 49 707 156 619 49 z "},"Ć":{"ha":792,"x_min":0,"x_max":0,"o":"m 524 1090 l 458 1156 b 296 961 425 1078 386 1010 l 304 947 b 524 1090 397 968 465 1017 z m 457 49 b 129 446 267 49 129 181 b 429 860 129 729 253 860 b 636 650 557 860 636 775 b 618 538 636 615 631 578 l 743 522 l 743 550 b 426 899 743 724 663 899 b 42 446 193 899 42 714 b 428 -10 42 157 183 -10 b 750 267 665 -10 728 150 l 729 271 b 457 49 707 156 619 49 z "},"Č":{"ha":792,"x_min":0,"x_max":0,"o":"m 263 1103 l 393 953 l 424 953 l 556 1103 l 472 1103 l 410 1017 l 344 1103 z m 457 49 b 129 446 267 49 129 181 b 429 860 129 729 253 860 b 636 650 557 860 636 775 b 618 538 636 615 631 578 l 743 522 l 743 550 b 426 899 743 724 663 899 b 42 446 193 899 42 714 b 428 -10 42 157 183 -10 b 750 267 665 -10 728 150 l 729 271 b 457 49 707 156 619 49 z "},"Ç":{"ha":792,"x_min":0,"x_max":0,"o":"m 428 -10 b 750 267 665 -10 728 150 l 729 271 b 457 49 707 156 619 49 b 129 446 267 49 129 181 b 429 860 129 729 253 860 b 636 650 557 860 636 775 b 618 538 636 615 631 578 l 743 522 l 743 550 b 426 899 743 724 663 899 b 42 446 193 899 42 714 b 361 -6 42 185 157 24 l 313 -108 b 375 -97 332 -101 347 -97 b 454 -175 426 -97 454 -129 b 393 -240 454 -222 428 -240 b 339 -192 360 -240 339 -219 b 350 -153 339 -178 343 -165 l 289 -140 b 282 -187 282 -157 282 -174 b 392 -278 282 -236 324 -278 b 510 -175 464 -278 510 -231 b 406 -76 510 -96 460 -76 b 385 -78 399 -76 392 -76 l 424 -10 z "},"Ċ":{"ha":792,"x_min":0,"x_max":0,"o":"m 329 1092 l 410 1010 l 490 1092 l 410 1172 z m 457 49 b 129 446 267 49 129 181 b 429 860 129 729 253 860 b 636 650 557 860 636 775 b 618 538 636 615 631 578 l 743 522 l 743 550 b 426 899 743 724 663 899 b 42 446 193 899 42 714 b 428 -10 42 157 183 -10 b 750 267 665 -10 728 150 l 729 271 b 457 49 707 156 619 49 z "},"D":{"ha":815,"x_min":0,"x_max":0,"o":"m 353 885 l 49 885 l 49 869 b 149 772 90 869 149 853 l 149 113 b 49 15 149 32 90 15 l 49 0 l 353 0 b 774 442 606 0 774 147 b 353 885 774 736 606 885 z m 325 51 l 231 51 l 231 833 l 325 833 b 688 442 539 833 688 700 b 325 51 688 183 539 51 z "},"Ð":{"ha":815,"x_min":0,"x_max":0,"o":"m 353 885 l 49 885 l 49 869 b 149 772 90 869 149 853 l 149 461 l 17 461 l 17 422 l 149 422 l 149 113 b 49 15 149 32 90 15 l 49 0 l 353 0 b 774 442 606 0 774 147 b 353 885 774 736 606 885 z m 325 51 l 231 51 l 231 422 l 475 422 l 475 461 l 231 461 l 231 833 l 325 833 b 688 442 539 833 688 700 b 325 51 688 183 539 51 z "},"Ď":{"ha":815,"x_min":0,"x_max":0,"o":"m 422 953 l 554 1103 l 471 1103 l 408 1017 l 343 1103 l 261 1103 l 392 953 z m 353 885 l 49 885 l 49 869 b 149 772 90 869 149 853 l 149 113 b 49 15 149 32 90 15 l 49 0 l 353 0 b 774 442 606 0 774 147 b 353 885 774 736 606 885 z m 325 51 l 231 51 l 231 833 l 325 833 b 688 442 539 833 688 700 b 325 51 688 183 539 51 z "},"Đ":{"ha":815,"x_min":0,"x_max":0,"o":"m 353 885 l 49 885 l 49 869 b 149 772 90 869 149 853 l 149 461 l 17 461 l 17 422 l 149 422 l 149 113 b 49 15 149 32 90 15 l 49 0 l 353 0 b 774 442 606 0 774 147 b 353 885 774 736 606 885 z m 325 51 l 231 51 l 231 422 l 475 422 l 475 461 l 231 461 l 231 833 l 325 833 b 688 442 539 833 688 700 b 325 51 688 183 539 51 z "},"E":{"ha":792,"x_min":0,"x_max":0,"o":"m 735 174 b 606 51 722 124 686 51 l 231 51 l 231 453 l 531 453 b 628 378 611 453 628 408 l 643 378 l 643 576 l 628 576 b 531 501 628 546 611 501 l 231 501 l 231 833 l 614 833 b 713 718 688 833 708 767 l 726 719 l 715 853 l 713 885 l 49 885 l 49 869 b 149 772 90 869 149 853 l 149 113 b 49 15 149 32 90 15 l 49 0 l 704 0 l 713 32 l 750 169 z "},"É":{"ha":792,"x_min":0,"x_max":0,"o":"m 525 1090 l 460 1156 b 297 961 426 1078 388 1010 l 306 947 b 525 1090 399 968 467 1017 z m 735 174 b 606 51 722 124 686 51 l 231 51 l 231 453 l 531 453 b 628 378 611 453 628 408 l 643 378 l 643 576 l 628 576 b 531 501 628 546 611 501 l 231 501 l 231 833 l 614 833 b 713 718 688 833 708 767 l 726 719 l 715 853 l 713 885 l 49 885 l 49 869 b 149 772 90 869 149 853 l 149 113 b 49 15 149 32 90 15 l 49 0 l 704 0 l 713 32 l 750 169 z "},"Ě":{"ha":792,"x_min":0,"x_max":0,"o":"m 425 953 l 557 1103 l 474 1103 l 411 1017 l 346 1103 l 264 1103 l 394 953 z m 735 174 b 606 51 722 124 686 51 l 231 51 l 231 453 l 531 453 b 628 378 611 453 628 408 l 643 378 l 643 576 l 628 576 b 531 501 628 546 611 501 l 231 501 l 231 833 l 614 833 b 713 718 688 833 708 767 l 726 719 l 715 853 l 713 885 l 49 885 l 49 869 b 149 772 90 869 149 853 l 149 113 b 49 15 149 32 90 15 l 49 0 l 704 0 l 713 32 l 750 169 z "},"Ê":{"ha":792,"x_min":0,"x_max":0,"o":"m 411 1039 l 474 953 l 557 953 l 425 1103 l 394 1103 l 264 953 l 346 953 z m 735 174 b 606 51 722 124 686 51 l 231 51 l 231 453 l 531 453 b 628 378 611 453 628 408 l 643 378 l 643 576 l 628 576 b 531 501 628 546 611 501 l 231 501 l 231 833 l 614 833 b 713 718 688 833 708 767 l 726 719 l 715 853 l 713 885 l 49 885 l 49 869 b 149 772 90 869 149 853 l 149 113 b 49 15 149 32 90 15 l 49 0 l 704 0 l 713 32 l 750 169 z "},"Ë":{"ha":792,"x_min":0,"x_max":0,"o":"m 388 1026 l 307 1107 l 226 1026 l 307 946 z m 594 1026 l 515 1107 l 435 1026 l 515 946 z m 735 174 b 606 51 722 124 686 51 l 231 51 l 231 453 l 531 453 b 628 378 611 453 628 408 l 643 378 l 643 576 l 628 576 b 531 501 628 546 611 501 l 231 501 l 231 833 l 614 833 b 713 718 688 833 708 767 l 726 719 l 715 853 l 713 885 l 49 885 l 49 869 b 149 772 90 869 149 853 l 149 113 b 49 15 149 32 90 15 l 49 0 l 704 0 l 713 32 l 750 169 z "},"Ė":{"ha":792,"x_min":0,"x_max":0,"o":"m 492 1092 l 411 1172 l 331 1092 l 411 1010 z m 735 174 b 606 51 722 124 686 51 l 231 51 l 231 453 l 531 453 b 628 378 611 453 628 408 l 643 378 l 643 576 l 628 576 b 531 501 628 546 611 501 l 231 501 l 231 833 l 614 833 b 713 718 688 833 708 767 l 726 719 l 715 853 l 713 885 l 49 885 l 49 869 b 149 772 90 869 149 853 l 149 113 b 49 15 149 32 90 15 l 49 0 l 704 0 l 713 32 l 750 169 z "},"È":{"ha":792,"x_min":0,"x_max":0,"o":"m 517 947 l 525 961 b 363 1156 435 1010 396 1078 l 297 1090 b 517 947 356 1017 424 968 z m 735 174 b 606 51 722 124 686 51 l 231 51 l 231 453 l 531 453 b 628 378 611 453 628 408 l 643 378 l 643 576 l 628 576 b 531 501 628 546 611 501 l 231 501 l 231 833 l 614 833 b 713 718 688 833 708 767 l 726 719 l 715 853 l 713 885 l 49 885 l 49 869 b 149 772 90 869 149 853 l 149 113 b 49 15 149 32 90 15 l 49 0 l 704 0 l 713 32 l 750 169 z "},"Ē":{"ha":792,"x_min":0,"x_max":0,"o":"m 597 1049 l 224 1049 l 224 1010 l 597 1010 z m 735 174 b 606 51 722 124 686 51 l 231 51 l 231 453 l 531 453 b 628 378 611 453 628 408 l 643 378 l 643 576 l 628 576 b 531 501 628 546 611 501 l 231 501 l 231 833 l 614 833 b 713 718 688 833 708 767 l 726 719 l 715 853 l 713 885 l 49 885 l 49 869 b 149 772 90 869 149 853 l 149 113 b 49 15 149 32 90 15 l 49 0 l 704 0 l 713 32 l 750 169 z "},"Ę":{"ha":792,"x_min":0,"x_max":0,"o":"m 629 0 l 704 0 l 713 32 l 750 169 l 735 174 b 606 51 722 124 686 51 l 231 51 l 231 453 l 531 453 b 628 378 611 453 628 408 l 643 378 l 643 576 l 628 576 b 531 501 628 546 611 501 l 231 501 l 231 833 l 614 833 b 713 718 688 833 708 767 l 726 719 l 715 853 l 713 885 l 49 885 l 49 869 b 149 772 90 869 149 853 l 149 113 b 49 15 149 32 90 15 l 49 0 l 597 0 b 483 -156 535 -39 483 -93 b 607 -268 483 -224 531 -268 b 710 -239 646 -268 678 -257 l 669 -162 b 599 -193 647 -182 628 -193 b 539 -136 561 -193 539 -169 b 629 0 539 -82 571 -43 z "},"F":{"ha":747,"x_min":0,"x_max":0,"o":"m 715 853 l 713 885 l 49 885 l 49 869 b 149 772 90 869 149 853 l 149 113 b 49 15 149 32 90 15 l 49 0 l 329 0 l 329 15 b 231 113 288 15 231 32 l 231 443 l 526 443 b 624 368 607 443 624 399 l 639 368 l 639 567 l 624 567 b 526 492 624 536 607 492 l 231 492 l 231 833 l 614 833 b 713 718 688 833 708 767 l 726 719 z "},"G":{"ha":826,"x_min":0,"x_max":0,"o":"m 428 -10 b 771 128 554 -10 660 21 b 760 182 764 143 760 157 l 760 388 l 321 388 l 321 372 l 556 344 b 689 233 644 333 700 326 l 674 111 b 457 49 633 69 546 49 b 129 446 267 49 129 181 b 443 860 129 729 267 860 b 657 657 571 860 657 782 b 639 544 657 622 651 585 l 764 529 l 764 557 b 440 899 764 731 676 899 b 42 446 207 899 42 714 b 428 -10 42 157 183 -10 z "},"Ğ":{"ha":826,"x_min":0,"x_max":0,"o":"m 261 1101 b 399 951 257 1001 324 951 b 535 1101 472 951 539 992 l 453 1101 b 399 979 472 1028 449 979 b 343 1101 347 979 324 1028 z m 428 -10 b 771 128 554 -10 660 21 b 760 182 764 143 760 157 l 760 388 l 321 388 l 321 372 l 556 344 b 689 233 644 333 700 326 l 674 111 b 457 49 633 69 546 49 b 129 446 267 49 129 181 b 443 860 129 729 267 860 b 657 657 571 860 657 782 b 639 544 657 622 651 585 l 764 529 l 764 557 b 440 899 764 731 676 899 b 42 446 207 899 42 714 b 428 -10 42 157 183 -10 z "},"Ģ":{"ha":826,"x_min":0,"x_max":0,"o":"m 428 -10 b 771 128 554 -10 660 21 b 760 182 764 143 760 157 l 760 388 l 321 388 l 321 372 l 556 344 b 689 233 644 333 700 326 l 674 111 b 457 49 633 69 546 49 b 129 446 267 49 129 181 b 443 860 129 729 267 860 b 657 657 571 860 657 782 b 639 544 657 622 651 585 l 764 529 l 764 557 b 440 899 764 731 676 899 b 42 446 207 899 42 714 b 428 -10 42 157 183 -10 z m 340 -126 l 421 -208 l 421 -386 l 431 -386 l 501 -126 l 421 -47 z "},"Ġ":{"ha":826,"x_min":0,"x_max":0,"o":"m 318 1092 l 399 1010 l 479 1092 l 399 1172 z m 428 -10 b 771 128 554 -10 660 21 b 760 182 764 143 760 157 l 760 388 l 321 388 l 321 372 l 556 344 b 689 233 644 333 700 326 l 674 111 b 457 49 633 69 546 49 b 129 446 267 49 129 181 b 443 860 129 729 267 860 b 657 657 571 860 657 782 b 639 544 657 622 651 585 l 764 529 l 764 557 b 440 899 764 731 676 899 b 42 446 207 899 42 714 b 428 -10 42 157 183 -10 z "},"H":{"ha":900,"x_min":0,"x_max":0,"o":"m 851 869 l 851 885 l 571 885 l 571 869 b 671 772 613 869 671 853 l 671 521 l 231 521 l 231 772 b 329 869 231 853 288 869 l 329 885 l 49 885 l 49 869 b 149 772 90 869 149 853 l 149 113 b 49 15 149 32 90 15 l 49 0 l 329 0 l 329 15 b 231 113 288 15 231 32 l 231 469 l 671 469 l 671 113 b 571 15 671 32 613 15 l 571 0 l 851 0 l 851 15 b 753 113 810 15 753 32 l 753 772 b 851 869 753 853 810 869 z "},"Ħ":{"ha":900,"x_min":0,"x_max":0,"o":"m 851 869 l 851 885 l 571 885 l 571 869 b 671 772 613 869 671 853 l 671 683 l 231 683 l 231 772 b 329 869 231 853 288 869 l 329 885 l 49 885 l 49 869 b 149 772 90 869 149 853 l 149 683 l 92 683 l 92 644 l 149 644 l 149 113 b 49 15 149 32 90 15 l 49 0 l 329 0 l 329 15 b 231 113 288 15 231 32 l 231 469 l 671 469 l 671 113 b 571 15 671 32 613 15 l 571 0 l 851 0 l 851 15 b 753 113 810 15 753 32 l 753 644 l 808 644 l 808 683 l 753 683 l 753 772 b 851 869 753 853 810 869 z m 671 521 l 231 521 l 231 644 l 671 644 z "},"I":{"ha":364,"x_min":0,"x_max":0,"o":"m 224 113 l 224 772 b 322 869 224 853 281 869 l 322 885 l 42 885 l 42 869 b 142 772 83 869 142 853 l 142 113 b 42 15 142 32 83 15 l 42 0 l 322 0 l 322 15 b 224 113 281 15 224 32 z "},"Í":{"ha":364,"x_min":0,"x_max":0,"o":"m 296 1090 l 231 1156 b 68 961 197 1078 158 1010 l 76 947 b 296 1090 169 968 238 1017 z m 224 113 l 224 772 b 322 869 224 853 281 869 l 322 885 l 42 885 l 42 869 b 142 772 83 869 142 853 l 142 113 b 42 15 142 32 83 15 l 42 0 l 322 0 l 322 15 b 224 113 281 15 224 32 z "},"Î":{"ha":364,"x_min":0,"x_max":0,"o":"m 35 953 l 117 953 l 182 1039 l 244 953 l 328 953 l 196 1103 l 165 1103 z m 224 113 l 224 772 b 322 869 224 853 281 869 l 322 885 l 42 885 l 42 869 b 142 772 83 869 142 853 l 142 113 b 42 15 142 32 83 15 l 42 0 l 322 0 l 322 15 b 224 113 281 15 224 32 z "},"Ï":{"ha":364,"x_min":0,"x_max":0,"o":"m -3 1026 l 78 946 l 158 1026 l 78 1107 z m 206 1026 l 286 946 l 365 1026 l 286 1107 z m 224 113 l 224 772 b 322 869 224 853 281 869 l 322 885 l 42 885 l 42 869 b 142 772 83 869 142 853 l 142 113 b 42 15 142 32 83 15 l 42 0 l 322 0 l 322 15 b 224 113 281 15 224 32 z "},"İ":{"ha":364,"x_min":0,"x_max":0,"o":"m 101 1092 l 182 1010 l 263 1092 l 182 1172 z m 224 113 l 224 772 b 322 869 224 853 281 869 l 322 885 l 42 885 l 42 869 b 142 772 83 869 142 853 l 142 113 b 42 15 142 32 83 15 l 42 0 l 322 0 l 322 15 b 224 113 281 15 224 32 z "},"Ì":{"ha":364,"x_min":0,"x_max":0,"o":"m 68 1090 b 288 947 126 1017 194 968 l 296 961 b 133 1156 206 1010 167 1078 z m 224 113 l 224 772 b 322 869 224 853 281 869 l 322 885 l 42 885 l 42 869 b 142 772 83 869 142 853 l 142 113 b 42 15 142 32 83 15 l 42 0 l 322 0 l 322 15 b 224 113 281 15 224 32 z "},"Ī":{"ha":364,"x_min":0,"x_max":0,"o":"m -6 1049 l -6 1010 l 368 1010 l 368 1049 z m 224 113 l 224 772 b 322 869 224 853 281 869 l 322 885 l 42 885 l 42 869 b 142 772 83 869 142 853 l 142 113 b 42 15 142 32 83 15 l 42 0 l 322 0 l 322 15 b 224 113 281 15 224 32 z "},"Į":{"ha":364,"x_min":0,"x_max":0,"o":"m 322 869 l 322 885 l 42 885 l 42 869 b 142 772 83 869 142 853 l 142 113 b 42 15 142 32 83 15 l 42 0 l 182 0 b 68 -156 119 -39 68 -93 b 192 -268 68 -224 115 -268 b 294 -239 231 -268 263 -257 l 254 -162 b 183 -193 232 -182 213 -193 b 124 -136 146 -193 124 -169 b 214 0 124 -82 156 -43 l 322 0 l 322 15 b 224 113 281 15 224 32 l 224 772 b 322 869 224 853 281 869 z "},"J":{"ha":715,"x_min":0,"x_max":0,"o":"m 639 885 l 182 885 b 201 736 194 835 201 794 l 217 736 b 314 833 217 778 233 833 l 557 833 l 557 335 b 349 33 557 125 501 33 b 140 236 222 33 140 113 b 157 350 140 272 147 317 l 42 365 l 42 339 b 339 -10 42 164 126 -10 b 639 310 551 -10 639 94 z "},"K":{"ha":872,"x_min":0,"x_max":0,"o":"m 699 93 l 451 451 l 371 460 l 646 797 b 815 869 696 860 774 869 l 815 885 l 513 885 l 513 869 b 575 797 568 869 625 860 l 231 376 l 231 772 b 329 869 231 853 288 869 l 329 885 l 49 885 l 49 869 b 149 772 90 869 149 853 l 149 113 b 49 15 149 32 90 15 l 49 0 l 329 0 l 329 15 b 231 113 288 15 231 32 l 231 288 l 360 446 l 604 93 b 518 15 650 26 581 15 l 518 0 l 861 0 l 861 15 b 699 93 819 15 744 26 z "},"Ķ":{"ha":872,"x_min":0,"x_max":0,"o":"m 699 93 l 451 451 l 371 460 l 646 797 b 815 869 696 860 774 869 l 815 885 l 513 885 l 513 869 b 575 797 568 869 625 860 l 231 376 l 231 772 b 329 869 231 853 288 869 l 329 885 l 49 885 l 49 869 b 149 772 90 869 149 853 l 149 113 b 49 15 149 32 90 15 l 49 0 l 329 0 l 329 15 b 231 113 288 15 231 32 l 231 288 l 360 446 l 604 93 b 518 15 650 26 581 15 l 518 0 l 861 0 l 861 15 b 699 93 819 15 744 26 z m 361 -126 l 442 -208 l 442 -386 l 451 -386 l 522 -126 l 442 -47 z "},"L":{"ha":665,"x_min":0,"x_max":0,"o":"m 639 167 b 511 51 626 119 592 51 l 231 51 l 231 772 b 329 869 231 853 288 869 l 329 885 l 49 885 l 49 869 b 149 772 90 869 149 853 l 149 113 b 49 15 149 32 90 15 l 49 0 l 610 0 l 618 32 l 654 163 z "},"Ĺ":{"ha":665,"x_min":0,"x_max":0,"o":"m 304 1090 l 239 1156 b 76 961 206 1078 167 1010 l 85 947 b 304 1090 178 968 246 1017 z m 639 167 b 511 51 626 119 592 51 l 231 51 l 231 772 b 329 869 231 853 288 869 l 329 885 l 49 885 l 49 869 b 149 772 90 869 149 853 l 149 113 b 49 15 149 32 90 15 l 49 0 l 610 0 l 618 32 l 654 163 z "},"Ľ":{"ha":665,"x_min":0,"x_max":0,"o":"m 557 582 l 567 582 l 638 842 l 557 921 l 476 842 l 557 760 z m 639 167 b 511 51 626 119 592 51 l 231 51 l 231 772 b 329 869 231 853 288 869 l 329 885 l 49 885 l 49 869 b 149 772 90 869 149 853 l 149 113 b 49 15 149 32 90 15 l 49 0 l 610 0 l 618 32 l 654 163 z "},"Ļ":{"ha":665,"x_min":0,"x_max":0,"o":"m 639 167 b 511 51 626 119 592 51 l 231 51 l 231 772 b 329 869 231 853 288 869 l 329 885 l 49 885 l 49 869 b 149 772 90 869 149 853 l 149 113 b 49 15 149 32 90 15 l 49 0 l 610 0 l 618 32 l 654 163 z m 272 -126 l 353 -208 l 353 -386 l 363 -386 l 433 -126 l 353 -47 z "},"Ł":{"ha":665,"x_min":0,"x_max":0,"o":"m 639 167 b 511 51 626 119 592 51 l 231 51 l 231 433 l 350 468 l 338 504 l 231 474 l 231 772 b 329 869 231 853 288 869 l 329 885 l 49 885 l 49 869 b 149 772 90 869 149 853 l 149 450 l 31 417 l 42 379 l 149 410 l 149 113 b 49 15 149 32 90 15 l 49 0 l 610 0 l 618 32 l 654 163 z "},"M":{"ha":1188,"x_min":0,"x_max":0,"o":"m 1050 113 l 956 772 b 1039 869 943 853 997 869 l 1039 885 l 831 885 l 626 201 b 604 68 611 150 606 104 l 360 885 l 149 885 l 149 869 b 232 772 190 869 244 853 l 138 113 b 21 15 125 32 63 15 l 21 0 l 301 0 l 301 15 b 194 113 249 15 182 32 l 297 828 l 544 0 l 626 0 l 869 828 l 972 113 b 872 15 985 32 921 15 l 872 0 l 1167 0 l 1167 15 b 1050 113 1125 15 1063 32 z "},"N":{"ha":932,"x_min":0,"x_max":0,"o":"m 883 869 l 883 885 l 610 885 l 610 869 b 726 772 658 869 726 853 l 726 58 l 257 885 l 49 885 l 49 869 b 149 772 90 869 149 853 l 149 113 b 49 15 149 32 90 15 l 49 0 l 304 0 l 304 15 b 206 113 263 15 206 32 l 206 817 l 669 0 l 883 0 l 883 15 b 783 113 842 15 783 32 l 783 772 b 883 869 783 853 842 869 z "},"Ń":{"ha":932,"x_min":0,"x_max":0,"o":"m 581 1090 l 515 1156 b 353 961 482 1078 443 1010 l 361 947 b 581 1090 454 968 522 1017 z m 883 869 l 883 885 l 610 885 l 610 869 b 726 772 658 869 726 853 l 726 58 l 257 885 l 49 885 l 49 869 b 149 772 90 869 149 853 l 149 113 b 49 15 149 32 90 15 l 49 0 l 304 0 l 304 15 b 206 113 263 15 206 32 l 206 817 l 669 0 l 883 0 l 883 15 b 783 113 842 15 783 32 l 783 772 b 883 869 783 853 842 869 z "},"Ň":{"ha":932,"x_min":0,"x_max":0,"o":"m 481 953 l 613 1103 l 529 1103 l 467 1017 l 401 1103 l 319 1103 l 450 953 z m 883 869 l 883 885 l 610 885 l 610 869 b 726 772 658 869 726 853 l 726 58 l 257 885 l 49 885 l 49 869 b 149 772 90 869 149 853 l 149 113 b 49 15 149 32 90 15 l 49 0 l 304 0 l 304 15 b 206 113 263 15 206 32 l 206 817 l 669 0 l 883 0 l 883 15 b 783 113 842 15 783 32 l 783 772 b 883 869 783 853 842 869 z "},"Ņ":{"ha":932,"x_min":0,"x_max":0,"o":"m 883 869 l 883 885 l 610 885 l 610 869 b 726 772 658 869 726 853 l 726 58 l 257 885 l 49 885 l 49 869 b 149 772 90 869 149 853 l 149 113 b 49 15 149 32 90 15 l 49 0 l 304 0 l 304 15 b 206 113 263 15 206 32 l 206 817 l 669 0 l 883 0 l 883 15 b 783 113 842 15 783 32 l 783 772 b 883 869 783 853 842 869 z m 386 -126 l 467 -208 l 467 -386 l 476 -386 l 547 -126 l 467 -47 z "},"Ŋ":{"ha":939,"x_min":0,"x_max":0,"o":"m 650 -268 b 783 -151 726 -268 783 -235 l 783 772 b 883 869 783 853 842 869 l 883 885 l 610 885 l 610 869 b 726 772 658 869 726 853 l 726 18 l 724 18 b 657 183 713 63 679 143 l 257 885 l 49 885 l 49 869 b 149 772 90 869 149 853 l 149 113 b 49 15 149 32 90 15 l 49 0 l 304 0 l 304 15 b 206 113 263 15 206 32 l 206 817 l 669 0 b 706 -119 688 -32 706 -64 l 706 -199 b 671 -239 706 -226 694 -239 b 614 -174 635 -239 618 -197 l 535 -197 b 650 -268 546 -239 594 -268 z "},"Ñ":{"ha":932,"x_min":0,"x_max":0,"o":"m 376 1000 b 514 972 432 1000 450 972 b 653 1043 556 972 611 1000 l 644 1051 b 556 1018 618 1035 593 1018 b 418 1046 501 1018 482 1046 b 281 975 376 1046 322 1018 l 289 968 b 376 1000 315 983 340 1000 z m 883 869 l 883 885 l 610 885 l 610 869 b 726 772 658 869 726 853 l 726 58 l 257 885 l 49 885 l 49 869 b 149 772 90 869 149 853 l 149 113 b 49 15 149 32 90 15 l 49 0 l 304 0 l 304 15 b 206 113 263 15 206 32 l 206 817 l 669 0 l 883 0 l 883 15 b 783 113 842 15 783 32 l 783 772 b 883 869 783 853 842 869 z "},"O":{"ha":867,"x_min":0,"x_max":0,"o":"m 433 899 b 42 451 169 899 42 707 b 433 -10 42 196 169 -10 b 825 451 697 -10 825 196 b 433 899 825 707 697 899 z m 433 29 b 129 451 232 29 129 226 b 433 860 129 675 232 860 b 738 451 635 860 738 675 b 433 29 738 226 635 29 z "},"Ó":{"ha":867,"x_min":0,"x_max":0,"o":"m 547 1090 l 482 1156 b 319 961 449 1078 410 1010 l 328 947 b 547 1090 421 968 489 1017 z m 433 899 b 42 451 169 899 42 707 b 433 -10 42 196 169 -10 b 825 451 697 -10 825 196 b 433 899 825 707 697 899 z m 433 29 b 129 451 232 29 129 226 b 433 860 129 675 232 860 b 738 451 635 860 738 675 b 433 29 738 226 635 29 z "},"Ô":{"ha":867,"x_min":0,"x_max":0,"o":"m 286 953 l 368 953 l 433 1039 l 496 953 l 579 953 l 447 1103 l 417 1103 z m 433 899 b 42 451 169 899 42 707 b 433 -10 42 196 169 -10 b 825 451 697 -10 825 196 b 433 899 825 707 697 899 z m 433 29 b 129 451 232 29 129 226 b 433 860 129 675 232 860 b 738 451 635 860 738 675 b 433 29 738 226 635 29 z "},"Ö":{"ha":867,"x_min":0,"x_max":0,"o":"m 249 1026 l 329 946 l 410 1026 l 329 1107 z m 457 1026 l 538 946 l 617 1026 l 538 1107 z m 433 899 b 42 451 169 899 42 707 b 433 -10 42 196 169 -10 b 825 451 697 -10 825 196 b 433 899 825 707 697 899 z m 433 29 b 129 451 232 29 129 226 b 433 860 129 675 232 860 b 738 451 635 860 738 675 b 433 29 738 226 635 29 z "},"Ò":{"ha":867,"x_min":0,"x_max":0,"o":"m 319 1090 b 539 947 378 1017 446 968 l 547 961 b 385 1156 457 1010 418 1078 z m 433 899 b 42 451 169 899 42 707 b 433 -10 42 196 169 -10 b 825 451 697 -10 825 196 b 433 899 825 707 697 899 z m 433 29 b 129 451 232 29 129 226 b 433 860 129 675 232 860 b 738 451 635 860 738 675 b 433 29 738 226 635 29 z "},"Ő":{"ha":867,"x_min":0,"x_max":0,"o":"m 426 1154 l 346 1154 l 346 968 l 369 968 z m 554 1154 l 474 1154 l 474 968 l 496 968 z m 433 899 b 42 451 169 899 42 707 b 433 -10 42 196 169 -10 b 825 451 697 -10 825 196 b 433 899 825 707 697 899 z m 433 29 b 129 451 232 29 129 226 b 433 860 129 675 232 860 b 738 451 635 860 738 675 b 433 29 738 226 635 29 z "},"Ō":{"ha":867,"x_min":0,"x_max":0,"o":"m 246 1049 l 246 1010 l 619 1010 l 619 1049 z m 433 899 b 42 451 169 899 42 707 b 433 -10 42 196 169 -10 b 825 451 697 -10 825 196 b 433 899 825 707 697 899 z m 433 29 b 129 451 232 29 129 226 b 433 860 129 675 232 860 b 738 451 635 860 738 675 b 433 29 738 226 635 29 z "},"Ø":{"ha":922,"x_min":0,"x_max":0,"o":"m 633 851 l 668 949 l 631 963 l 596 869 b 433 899 550 888 494 899 b 42 451 169 899 42 707 b 285 17 42 250 121 79 l 257 -61 l 296 -75 l 325 3 b 433 -10 358 -6 394 -10 b 825 451 697 -10 825 196 b 633 851 825 631 763 779 z m 129 451 b 433 860 129 675 232 860 b 579 819 489 860 538 846 l 303 63 b 129 451 188 128 129 282 z m 433 29 b 339 46 399 29 368 35 l 613 794 b 738 451 696 722 738 594 b 433 29 738 226 635 29 z "},"Õ":{"ha":867,"x_min":0,"x_max":0,"o":"m 247 975 l 256 968 b 343 1000 282 983 307 1000 b 481 972 399 1000 417 972 b 619 1043 522 972 578 1000 l 611 1051 b 522 1018 585 1035 560 1018 b 385 1046 468 1018 449 1046 b 247 975 343 1046 289 1018 z m 433 899 b 42 451 169 899 42 707 b 433 -10 42 196 169 -10 b 825 451 697 -10 825 196 b 433 899 825 707 697 899 z m 433 29 b 129 451 232 29 129 226 b 433 860 129 675 232 860 b 738 451 635 860 738 675 b 433 29 738 226 635 29 z "},"Œ":{"ha":1375,"x_min":0,"x_max":0,"o":"m 1318 172 b 1188 50 1304 122 1268 50 l 819 50 l 819 453 l 1119 453 b 1217 378 1200 453 1217 408 l 1232 378 l 1232 576 l 1217 576 b 1119 501 1217 546 1200 501 l 819 501 l 819 835 l 1210 835 b 1308 719 1283 835 1304 768 l 1322 721 l 1311 854 l 1308 885 l 738 885 l 738 749 b 433 899 676 842 576 899 b 42 451 169 899 42 707 b 433 -10 42 196 169 -10 b 738 147 576 -10 676 51 l 738 0 l 1286 0 l 1294 31 l 1333 168 z m 433 29 b 129 451 232 29 129 226 b 433 860 129 675 232 860 b 738 451 635 860 738 675 b 433 29 738 226 635 29 z "},"P":{"ha":668,"x_min":0,"x_max":0,"o":"m 392 885 l 49 885 l 49 869 b 149 772 90 869 149 853 l 149 113 b 49 15 149 32 90 15 l 49 0 l 329 0 l 329 15 b 231 113 288 15 231 32 l 231 549 l 232 549 b 410 439 239 517 289 439 b 654 668 565 439 654 550 b 392 885 654 800 556 885 z m 392 482 b 231 650 267 482 231 572 l 231 833 l 360 833 b 568 660 519 833 568 754 b 392 482 568 579 525 482 z "},"Þ":{"ha":668,"x_min":0,"x_max":0,"o":"m 392 669 l 231 669 l 231 772 b 329 869 231 853 288 869 l 329 885 l 49 885 l 49 869 b 149 772 90 869 149 853 l 149 113 b 49 15 149 32 90 15 l 49 0 l 329 0 l 329 15 b 231 113 288 15 231 32 l 231 333 l 232 333 b 410 224 239 301 289 224 b 654 453 565 224 654 335 b 392 669 654 585 556 669 z m 392 267 b 231 435 267 267 231 357 l 231 619 l 360 619 b 568 444 519 619 568 539 b 392 267 568 364 525 267 z "},"Q":{"ha":867,"x_min":0,"x_max":0,"o":"m 825 451 b 433 899 825 707 697 899 b 42 451 169 899 42 707 b 433 -10 42 196 169 -10 b 560 8 479 -10 522 -3 l 671 -132 l 790 -247 l 801 -237 l 601 25 b 825 451 751 93 825 258 z m 433 860 b 738 451 635 860 738 675 b 569 65 738 285 681 133 l 150 617 b 433 860 190 758 285 860 z m 433 29 b 129 451 232 29 129 226 b 136 544 129 483 132 514 l 529 46 b 433 29 500 35 468 29 z "},"R":{"ha":779,"x_min":0,"x_max":0,"o":"m 514 318 b 333 478 451 393 392 440 l 335 481 b 404 468 361 471 381 468 b 654 678 572 468 654 560 b 392 885 654 810 556 885 l 49 885 l 49 869 b 149 772 90 869 149 853 l 149 113 b 49 15 149 32 90 15 l 49 0 l 329 0 l 329 15 b 231 113 288 15 231 32 l 231 543 l 604 88 b 526 15 656 25 589 15 l 526 0 l 765 0 l 765 15 z m 231 664 l 231 833 l 360 833 b 568 674 519 833 568 769 b 385 510 568 593 511 510 b 231 664 300 510 231 560 z "},"Ŕ":{"ha":779,"x_min":0,"x_max":0,"o":"m 479 1090 l 414 1156 b 251 961 381 1078 342 1010 l 260 947 b 479 1090 353 968 421 1017 z m 514 318 b 333 478 451 393 392 440 l 335 481 b 404 468 361 471 381 468 b 654 678 572 468 654 560 b 392 885 654 810 556 885 l 49 885 l 49 869 b 149 772 90 869 149 853 l 149 113 b 49 15 149 32 90 15 l 49 0 l 329 0 l 329 15 b 231 113 288 15 231 32 l 231 543 l 604 88 b 526 15 656 25 589 15 l 526 0 l 765 0 l 765 15 z m 231 664 l 231 833 l 360 833 b 568 674 519 833 568 769 b 385 510 568 593 511 510 b 231 664 300 510 231 560 z "},"Ř":{"ha":779,"x_min":0,"x_max":0,"o":"m 379 953 l 511 1103 l 428 1103 l 365 1017 l 300 1103 l 218 1103 l 349 953 z m 514 318 b 333 478 451 393 392 440 l 335 481 b 404 468 361 471 381 468 b 654 678 572 468 654 560 b 392 885 654 810 556 885 l 49 885 l 49 869 b 149 772 90 869 149 853 l 149 113 b 49 15 149 32 90 15 l 49 0 l 329 0 l 329 15 b 231 113 288 15 231 32 l 231 543 l 604 88 b 526 15 656 25 589 15 l 526 0 l 765 0 l 765 15 z m 231 664 l 231 833 l 360 833 b 568 674 519 833 568 769 b 385 510 568 593 511 510 b 231 664 300 510 231 560 z "},"Ŗ":{"ha":779,"x_min":0,"x_max":0,"o":"m 514 318 b 333 478 451 393 392 440 l 335 481 b 404 468 361 471 381 468 b 654 678 572 468 654 560 b 392 885 654 810 556 885 l 49 885 l 49 869 b 149 772 90 869 149 853 l 149 113 b 49 15 149 32 90 15 l 49 0 l 329 0 l 329 15 b 231 113 288 15 231 32 l 231 543 l 604 88 b 526 15 656 25 589 15 l 526 0 l 765 0 l 765 15 z m 231 664 l 231 833 l 360 833 b 568 674 519 833 568 769 b 385 510 568 593 511 510 b 231 664 300 510 231 560 z m 343 -126 l 424 -208 l 424 -386 l 433 -386 l 504 -126 l 424 -47 z "},"S":{"ha":729,"x_min":0,"x_max":0,"o":"m 460 489 l 268 558 b 165 690 192 586 165 638 b 369 860 165 789 238 860 b 633 567 533 860 607 757 l 647 567 l 638 806 b 374 899 571 865 482 899 b 79 678 164 899 79 783 b 235 478 79 560 144 510 l 436 406 b 586 219 542 369 586 306 b 369 32 586 115 511 32 b 69 399 181 32 74 183 l 56 399 l 56 132 b 369 -10 101 58 201 -10 b 674 246 511 -10 674 24 b 460 489 674 385 585 443 z "},"Ś":{"ha":729,"x_min":0,"x_max":0,"o":"m 479 1090 l 414 1156 b 251 961 381 1078 342 1010 l 260 947 b 479 1090 353 968 421 1017 z m 460 489 l 268 558 b 165 690 192 586 165 638 b 369 860 165 789 238 860 b 633 567 533 860 607 757 l 647 567 l 638 806 b 374 899 571 865 482 899 b 79 678 164 899 79 783 b 235 478 79 560 144 510 l 436 406 b 586 219 542 369 586 306 b 369 32 586 115 511 32 b 69 399 181 32 74 183 l 56 399 l 56 132 b 369 -10 101 58 201 -10 b 674 246 511 -10 674 24 b 460 489 674 385 585 443 z "},"Š":{"ha":729,"x_min":0,"x_max":0,"o":"m 218 1103 l 349 953 l 379 953 l 511 1103 l 428 1103 l 365 1017 l 300 1103 z m 460 489 l 268 558 b 165 690 192 586 165 638 b 369 860 165 789 238 860 b 633 567 533 860 607 757 l 647 567 l 638 806 b 374 899 571 865 482 899 b 79 678 164 899 79 783 b 235 478 79 560 144 510 l 436 406 b 586 219 542 369 586 306 b 369 32 586 115 511 32 b 69 399 181 32 74 183 l 56 399 l 56 132 b 369 -10 101 58 201 -10 b 674 246 511 -10 674 24 b 460 489 674 385 585 443 z "},"Ş":{"ha":729,"x_min":0,"x_max":0,"o":"m 674 246 b 460 489 674 385 585 443 l 268 558 b 165 690 192 586 165 638 b 369 860 165 789 238 860 b 633 567 533 860 607 757 l 647 567 l 638 806 b 374 899 571 865 482 899 b 79 678 164 899 79 783 b 235 478 79 560 144 510 l 436 406 b 586 219 542 369 586 306 b 369 32 586 115 511 32 b 69 399 181 32 74 183 l 56 399 l 56 132 b 328 -8 97 64 185 1 l 282 -108 b 344 -97 301 -101 317 -97 b 424 -175 396 -97 424 -129 b 363 -240 424 -222 397 -240 b 308 -192 329 -240 308 -219 b 319 -153 308 -178 313 -165 l 258 -140 b 251 -187 251 -157 251 -174 b 361 -278 251 -236 293 -278 b 479 -175 433 -278 479 -231 b 375 -76 479 -96 429 -76 b 354 -78 368 -76 361 -76 l 394 -10 b 674 246 529 -6 674 36 z "},"Ș":{"ha":729,"x_min":0,"x_max":0,"o":"m 460 489 l 268 558 b 165 690 192 586 165 638 b 369 860 165 789 238 860 b 633 567 533 860 607 757 l 647 567 l 638 806 b 374 899 571 865 482 899 b 79 678 164 899 79 783 b 235 478 79 560 144 510 l 436 406 b 586 219 542 369 586 306 b 369 32 586 115 511 32 b 69 399 181 32 74 183 l 56 399 l 56 132 b 369 -10 101 58 201 -10 b 674 246 511 -10 674 24 b 460 489 674 385 585 443 z m 285 -126 l 365 -208 l 365 -386 l 375 -386 l 446 -126 l 365 -47 z "},"T":{"ha":776,"x_min":0,"x_max":0,"o":"m 758 854 l 754 894 b 653 885 732 886 697 885 l 124 885 b 22 894 79 885 44 886 l 18 854 l 1 711 l 17 710 b 128 833 22 761 47 833 l 347 833 l 347 113 b 247 15 347 32 289 15 l 247 0 l 528 0 l 528 15 b 429 113 486 15 429 32 l 429 833 l 649 833 b 760 707 729 833 754 760 l 775 710 z "},"Ŧ":{"ha":776,"x_min":0,"x_max":0,"o":"m 758 854 l 754 894 b 653 885 732 886 697 885 l 124 885 b 22 894 79 885 44 886 l 18 854 l 1 711 l 17 710 b 128 833 22 761 47 833 l 347 833 l 347 463 l 160 463 l 160 424 l 347 424 l 347 113 b 247 15 347 32 289 15 l 247 0 l 528 0 l 528 15 b 429 113 486 15 429 32 l 429 424 l 618 424 l 618 463 l 429 463 l 429 833 l 649 833 b 760 707 729 833 754 760 l 775 710 z "},"Ť":{"ha":776,"x_min":0,"x_max":0,"o":"m 403 953 l 535 1103 l 451 1103 l 389 1017 l 324 1103 l 242 1103 l 372 953 z m 758 854 l 754 894 b 653 885 732 886 697 885 l 124 885 b 22 894 79 885 44 886 l 18 854 l 1 711 l 17 710 b 128 833 22 761 47 833 l 347 833 l 347 113 b 247 15 347 32 289 15 l 247 0 l 528 0 l 528 15 b 429 113 486 15 429 32 l 429 833 l 649 833 b 760 707 729 833 754 760 l 775 710 z "},"Ţ":{"ha":776,"x_min":0,"x_max":0,"o":"m 758 854 l 754 894 b 653 885 732 886 697 885 l 124 885 b 22 894 79 885 44 886 l 18 854 l 1 711 l 17 710 b 128 833 22 761 47 833 l 347 833 l 347 113 b 247 15 347 32 289 15 l 247 0 l 356 0 l 306 -108 b 368 -97 325 -101 340 -97 b 447 -175 419 -97 447 -129 b 386 -240 447 -222 421 -240 b 332 -192 353 -240 332 -219 b 343 -153 332 -178 336 -165 l 282 -140 b 275 -187 275 -157 275 -174 b 385 -278 275 -236 317 -278 b 503 -175 457 -278 503 -231 b 399 -76 503 -96 453 -76 b 378 -78 392 -76 385 -76 l 422 0 l 528 0 l 528 15 b 429 113 486 15 429 32 l 429 833 l 649 833 b 760 707 729 833 754 760 l 775 710 z "},"Ț":{"ha":776,"x_min":0,"x_max":0,"o":"m 758 854 l 754 894 b 653 885 732 886 697 885 l 124 885 b 22 894 79 885 44 886 l 18 854 l 1 711 l 17 710 b 128 833 22 761 47 833 l 347 833 l 347 113 b 247 15 347 32 289 15 l 247 0 l 528 0 l 528 15 b 429 113 486 15 429 32 l 429 833 l 649 833 b 760 707 729 833 754 760 l 775 710 z m 308 -126 l 389 -208 l 389 -386 l 399 -386 l 469 -126 l 389 -47 z "},"U":{"ha":840,"x_min":0,"x_max":0,"o":"m 301 886 l 21 886 l 21 871 b 119 774 63 871 119 854 l 119 374 b 435 -11 119 122 196 -11 b 719 339 631 -11 719 139 l 719 772 b 819 869 719 853 778 869 l 819 885 l 564 885 l 564 869 b 663 772 606 869 663 853 l 663 339 b 432 32 663 154 593 32 b 201 339 271 32 201 153 l 201 774 b 301 871 201 854 260 871 z "},"Ú":{"ha":840,"x_min":0,"x_max":0,"o":"m 535 1090 l 469 1156 b 307 961 436 1078 397 1010 l 315 947 b 535 1090 408 968 476 1017 z m 301 886 l 21 886 l 21 871 b 119 774 63 871 119 854 l 119 374 b 435 -11 119 122 196 -11 b 719 339 631 -11 719 139 l 719 772 b 819 869 719 853 778 869 l 819 885 l 564 885 l 564 869 b 663 772 606 869 663 853 l 663 339 b 432 32 663 154 593 32 b 201 339 271 32 201 153 l 201 774 b 301 871 201 854 260 871 z "},"Û":{"ha":840,"x_min":0,"x_max":0,"o":"m 274 953 l 356 953 l 421 1039 l 483 953 l 567 953 l 435 1103 l 404 1103 z m 301 886 l 21 886 l 21 871 b 119 774 63 871 119 854 l 119 374 b 435 -11 119 122 196 -11 b 719 339 631 -11 719 139 l 719 772 b 819 869 719 853 778 869 l 819 885 l 564 885 l 564 869 b 663 772 606 869 663 853 l 663 339 b 432 32 663 154 593 32 b 201 339 271 32 201 153 l 201 774 b 301 871 201 854 260 871 z "},"Ü":{"ha":840,"x_min":0,"x_max":0,"o":"m 236 1026 l 317 946 l 397 1026 l 317 1107 z m 444 1026 l 525 946 l 604 1026 l 525 1107 z m 301 886 l 21 886 l 21 871 b 119 774 63 871 119 854 l 119 374 b 435 -11 119 122 196 -11 b 719 339 631 -11 719 139 l 719 772 b 819 869 719 853 778 869 l 819 885 l 564 885 l 564 869 b 663 772 606 869 663 853 l 663 339 b 432 32 663 154 593 32 b 201 339 271 32 201 153 l 201 774 b 301 871 201 854 260 871 z "},"Ù":{"ha":840,"x_min":0,"x_max":0,"o":"m 307 1090 b 526 947 365 1017 433 968 l 535 961 b 372 1156 444 1010 406 1078 z m 301 886 l 21 886 l 21 871 b 119 774 63 871 119 854 l 119 374 b 435 -11 119 122 196 -11 b 719 339 631 -11 719 139 l 719 772 b 819 869 719 853 778 869 l 819 885 l 564 885 l 564 869 b 663 772 606 869 663 853 l 663 339 b 432 32 663 154 593 32 b 201 339 271 32 201 153 l 201 774 b 301 871 201 854 260 871 z "},"Ű":{"ha":840,"x_min":0,"x_max":0,"o":"m 414 1154 l 333 1154 l 333 968 l 357 968 z m 542 1154 l 461 1154 l 461 968 l 483 968 z m 301 886 l 21 886 l 21 871 b 119 774 63 871 119 854 l 119 374 b 435 -11 119 122 196 -11 b 719 339 631 -11 719 139 l 719 772 b 819 869 719 853 778 869 l 819 885 l 564 885 l 564 869 b 663 772 606 869 663 853 l 663 339 b 432 32 663 154 593 32 b 201 339 271 32 201 153 l 201 774 b 301 871 201 854 260 871 z "},"Ū":{"ha":840,"x_min":0,"x_max":0,"o":"m 233 1049 l 233 1010 l 607 1010 l 607 1049 z m 301 886 l 21 886 l 21 871 b 119 774 63 871 119 854 l 119 374 b 435 -11 119 122 196 -11 b 719 339 631 -11 719 139 l 719 772 b 819 869 719 853 778 869 l 819 885 l 564 885 l 564 869 b 663 772 606 869 663 853 l 663 339 b 432 32 663 154 593 32 b 201 339 271 32 201 153 l 201 774 b 301 871 201 854 260 871 z "},"Ų":{"ha":840,"x_min":0,"x_max":0,"o":"m 819 885 l 564 885 l 564 869 b 663 772 606 869 663 853 l 663 339 b 432 32 663 154 593 32 b 201 339 271 32 201 153 l 201 774 b 301 871 201 854 260 871 l 301 886 l 21 886 l 21 871 b 119 774 63 871 119 854 l 119 374 b 435 -11 119 122 196 -11 l 444 -11 b 347 -156 389 -49 347 -99 b 471 -268 347 -224 394 -268 b 574 -239 510 -268 542 -257 l 533 -162 b 463 -193 511 -182 492 -193 b 403 -136 425 -193 403 -169 b 482 -8 403 -85 432 -49 b 719 339 644 15 719 156 l 719 772 b 819 869 719 853 778 869 z "},"Ů":{"ha":840,"x_min":0,"x_max":0,"o":"m 421 946 b 501 1026 465 946 501 982 b 421 1107 501 1071 465 1107 b 340 1026 376 1107 340 1071 b 421 946 340 982 376 946 z m 421 981 b 375 1026 394 981 375 1001 b 421 1074 375 1053 394 1074 b 468 1026 447 1074 468 1053 b 421 981 468 1001 447 981 z m 301 886 l 21 886 l 21 871 b 119 774 63 871 119 854 l 119 374 b 435 -11 119 122 196 -11 b 719 339 631 -11 719 139 l 719 772 b 819 869 719 853 778 869 l 819 885 l 564 885 l 564 869 b 663 772 606 869 663 853 l 663 339 b 432 32 663 154 593 32 b 201 339 271 32 201 153 l 201 774 b 301 871 201 854 260 871 z "},"V":{"ha":857,"x_min":0,"x_max":0,"o":"m 853 885 l 547 885 l 547 869 b 661 778 610 869 688 854 l 479 228 b 451 58 463 176 454 110 l 188 885 l 4 885 l 4 869 b 139 776 46 869 114 854 l 388 0 l 469 0 l 719 778 b 853 869 744 854 811 869 z "},"W":{"ha":1417,"x_min":0,"x_max":0,"o":"m 1413 885 l 1156 885 l 1156 869 b 1225 775 1197 869 1246 854 l 1025 40 l 736 885 l 556 885 l 556 869 b 690 778 597 869 664 854 l 701 746 l 465 33 l 221 778 b 286 869 196 854 244 869 l 286 885 l 4 885 l 4 869 b 139 778 46 869 114 854 l 394 0 l 514 0 l 703 572 b 731 660 714 604 724 633 l 956 0 l 1072 0 l 1283 775 b 1413 869 1304 854 1371 869 z "},"Ẃ":{"ha":1417,"x_min":0,"x_max":0,"o":"m 822 1090 l 757 1156 b 594 961 724 1078 685 1010 l 603 947 b 822 1090 696 968 764 1017 z m 1413 885 l 1156 885 l 1156 869 b 1225 775 1197 869 1246 854 l 1025 40 l 736 885 l 556 885 l 556 869 b 690 778 597 869 664 854 l 701 746 l 465 33 l 221 778 b 286 869 196 854 244 869 l 286 885 l 4 885 l 4 869 b 139 778 46 869 114 854 l 394 0 l 514 0 l 703 572 b 731 660 714 604 724 633 l 956 0 l 1072 0 l 1283 775 b 1413 869 1304 854 1371 869 z "},"Ŵ":{"ha":1417,"x_min":0,"x_max":0,"o":"m 708 1039 l 771 953 l 854 953 l 722 1103 l 692 1103 l 561 953 l 643 953 z m 1413 885 l 1156 885 l 1156 869 b 1225 775 1197 869 1246 854 l 1025 40 l 736 885 l 556 885 l 556 869 b 690 778 597 869 664 854 l 701 746 l 465 33 l 221 778 b 286 869 196 854 244 869 l 286 885 l 4 885 l 4 869 b 139 778 46 869 114 854 l 394 0 l 514 0 l 703 572 b 731 660 714 604 724 633 l 956 0 l 1072 0 l 1283 775 b 1413 869 1304 854 1371 869 z "},"Ẅ":{"ha":1417,"x_min":0,"x_max":0,"o":"m 685 1026 l 604 1107 l 524 1026 l 604 946 z m 892 1026 l 813 1107 l 732 1026 l 813 946 z m 1413 885 l 1156 885 l 1156 869 b 1225 775 1197 869 1246 854 l 1025 40 l 736 885 l 556 885 l 556 869 b 690 778 597 869 664 854 l 701 746 l 465 33 l 221 778 b 286 869 196 854 244 869 l 286 885 l 4 885 l 4 869 b 139 778 46 869 114 854 l 394 0 l 514 0 l 703 572 b 731 660 714 604 724 633 l 956 0 l 1072 0 l 1283 775 b 1413 869 1304 854 1371 869 z "},"Ẁ":{"ha":1417,"x_min":0,"x_max":0,"o":"m 814 947 l 822 961 b 660 1156 732 1010 693 1078 l 594 1090 b 814 947 653 1017 721 968 z m 1413 885 l 1156 885 l 1156 869 b 1225 775 1197 869 1246 854 l 1025 40 l 736 885 l 556 885 l 556 869 b 690 778 597 869 664 854 l 701 746 l 465 33 l 221 778 b 286 869 196 854 244 869 l 286 885 l 4 885 l 4 869 b 139 778 46 869 114 854 l 394 0 l 514 0 l 703 572 b 731 660 714 604 724 633 l 956 0 l 1072 0 l 1283 775 b 1413 869 1304 854 1371 869 z "},"X":{"ha":940,"x_min":0,"x_max":0,"o":"m 747 96 l 519 468 l 718 789 b 876 869 761 857 835 869 l 876 885 l 594 885 l 594 869 b 651 789 643 869 694 857 l 486 522 l 264 885 l 74 885 l 74 869 b 233 789 115 869 190 857 l 426 471 l 194 96 b 35 15 151 28 76 15 l 35 0 l 315 0 l 315 15 b 260 96 267 15 217 28 l 460 417 l 656 96 b 599 15 699 28 647 15 l 599 0 l 906 0 l 906 15 b 747 96 864 15 790 28 z "},"Y":{"ha":846,"x_min":0,"x_max":0,"o":"m 842 885 l 531 885 l 531 869 b 625 786 593 869 665 857 l 422 419 l 194 885 l 4 885 l 4 869 b 154 783 46 869 118 856 l 369 354 l 369 113 b 269 15 369 32 311 15 l 269 0 l 550 0 l 550 15 b 451 113 508 15 451 32 l 451 358 l 689 786 b 842 869 728 857 800 869 z "},"Ý":{"ha":846,"x_min":0,"x_max":0,"o":"m 536 1090 l 471 1156 b 308 961 438 1078 399 1010 l 317 947 b 536 1090 410 968 478 1017 z m 842 885 l 531 885 l 531 869 b 625 786 593 869 665 857 l 422 419 l 194 885 l 4 885 l 4 869 b 154 783 46 869 118 856 l 369 354 l 369 113 b 269 15 369 32 311 15 l 269 0 l 550 0 l 550 15 b 451 113 508 15 451 32 l 451 358 l 689 786 b 842 869 728 857 800 869 z "},"Ŷ":{"ha":846,"x_min":0,"x_max":0,"o":"m 422 1039 l 485 953 l 568 953 l 436 1103 l 406 1103 l 275 953 l 357 953 z m 842 885 l 531 885 l 531 869 b 625 786 593 869 665 857 l 422 419 l 194 885 l 4 885 l 4 869 b 154 783 46 869 118 856 l 369 354 l 369 113 b 269 15 369 32 311 15 l 269 0 l 550 0 l 550 15 b 451 113 508 15 451 32 l 451 358 l 689 786 b 842 869 728 857 800 869 z "},"Ÿ":{"ha":846,"x_min":0,"x_max":0,"o":"m 399 1026 l 318 1107 l 238 1026 l 318 946 z m 606 1026 l 526 1107 l 446 1026 l 526 946 z m 842 885 l 531 885 l 531 869 b 625 786 593 869 665 857 l 422 419 l 194 885 l 4 885 l 4 869 b 154 783 46 869 118 856 l 369 354 l 369 113 b 269 15 369 32 311 15 l 269 0 l 550 0 l 550 15 b 451 113 508 15 451 32 l 451 358 l 689 786 b 842 869 728 857 800 869 z "},"Ỳ":{"ha":846,"x_min":0,"x_max":0,"o":"m 528 947 l 536 961 b 374 1156 446 1010 407 1078 l 308 1090 b 528 947 367 1017 435 968 z m 842 885 l 531 885 l 531 869 b 625 786 593 869 665 857 l 422 419 l 194 885 l 4 885 l 4 869 b 154 783 46 869 118 856 l 369 354 l 369 113 b 269 15 369 32 311 15 l 269 0 l 550 0 l 550 15 b 451 113 508 15 451 32 l 451 358 l 689 786 b 842 869 728 857 800 869 z "},"Z":{"ha":865,"x_min":0,"x_max":0,"o":"m 804 283 b 664 72 783 199 738 76 l 165 49 b 321 229 213 96 281 175 l 804 869 l 804 885 l 97 885 l 93 857 l 56 617 l 71 614 b 200 826 83 700 119 824 l 693 842 b 568 690 640 792 601 735 l 51 13 l 51 0 l 668 0 b 743 -17 707 0 725 -7 l 758 44 l 817 281 z "},"Ź":{"ha":865,"x_min":0,"x_max":0,"o":"m 546 1090 l 481 1156 b 318 961 447 1078 408 1010 l 326 947 b 546 1090 419 968 488 1017 z m 804 283 b 664 72 783 199 738 76 l 165 49 b 321 229 213 96 281 175 l 804 869 l 804 885 l 97 885 l 93 857 l 56 617 l 71 614 b 200 826 83 700 119 824 l 693 842 b 568 690 640 792 601 735 l 51 13 l 51 0 l 668 0 b 743 -17 707 0 725 -7 l 758 44 l 817 281 z "},"Ž":{"ha":865,"x_min":0,"x_max":0,"o":"m 446 953 l 578 1103 l 494 1103 l 432 1017 l 367 1103 l 285 1103 l 415 953 z m 804 283 b 664 72 783 199 738 76 l 165 49 b 321 229 213 96 281 175 l 804 869 l 804 885 l 97 885 l 93 857 l 56 617 l 71 614 b 200 826 83 700 119 824 l 693 842 b 568 690 640 792 601 735 l 51 13 l 51 0 l 668 0 b 743 -17 707 0 725 -7 l 758 44 l 817 281 z "},"Ż":{"ha":865,"x_min":0,"x_max":0,"o":"m 513 1092 l 432 1172 l 351 1092 l 432 1010 z m 804 283 b 664 72 783 199 738 76 l 165 49 b 321 229 213 96 281 175 l 804 869 l 804 885 l 97 885 l 93 857 l 56 617 l 71 614 b 200 826 83 700 119 824 l 693 842 b 568 690 640 792 601 735 l 51 13 l 51 0 l 668 0 b 743 -17 707 0 725 -7 l 758 44 l 817 281 z "},"a":{"ha":647,"x_min":0,"x_max":0,"o":"m 531 103 l 531 342 b 301 640 531 469 517 640 b 79 465 133 640 79 546 b 89 410 79 446 82 426 l 176 419 l 176 425 b 151 485 161 431 151 456 b 294 601 151 540 193 601 b 457 388 431 601 457 492 b 456 351 457 376 457 364 l 78 318 b 69 208 72 278 69 240 b 236 -10 69 47 143 -10 b 450 199 375 -10 426 106 l 457 199 l 457 0 l 613 0 l 613 14 b 531 103 578 14 531 29 z m 268 43 b 149 204 182 43 149 100 b 156 285 149 229 150 256 l 456 329 b 268 43 446 201 404 43 z "},"á":{"ha":647,"x_min":0,"x_max":0,"o":"m 421 857 l 356 922 b 193 714 322 844 283 776 l 201 700 b 421 857 294 735 363 783 z m 531 103 l 531 342 b 301 640 531 469 517 640 b 79 465 133 640 79 546 b 89 410 79 446 82 426 l 176 419 l 176 425 b 151 485 161 431 151 456 b 294 601 151 540 193 601 b 457 388 431 601 457 492 b 456 351 457 376 457 364 l 78 318 b 69 208 72 278 69 240 b 236 -10 69 47 143 -10 b 450 199 375 -10 426 106 l 457 199 l 457 0 l 613 0 l 613 14 b 531 103 578 14 531 29 z m 268 43 b 149 204 182 43 149 100 b 156 285 149 229 150 256 l 456 329 b 268 43 446 201 404 43 z "},"ă":{"ha":647,"x_min":0,"x_max":0,"o":"m 307 735 b 443 885 381 735 447 775 l 361 885 b 307 763 381 811 357 763 b 251 885 256 763 232 811 l 169 885 b 307 735 165 785 232 735 z m 531 103 l 531 342 b 301 640 531 469 517 640 b 79 465 133 640 79 546 b 89 410 79 446 82 426 l 176 419 l 176 425 b 151 485 161 431 151 456 b 294 601 151 540 193 601 b 457 388 431 601 457 492 b 456 351 457 376 457 364 l 78 318 b 69 208 72 278 69 240 b 236 -10 69 47 143 -10 b 450 199 375 -10 426 106 l 457 199 l 457 0 l 613 0 l 613 14 b 531 103 578 14 531 29 z m 268 43 b 149 204 182 43 149 100 b 156 285 149 229 150 256 l 456 329 b 268 43 446 201 404 43 z "},"â":{"ha":647,"x_min":0,"x_max":0,"o":"m 307 835 l 369 749 l 453 749 l 321 899 l 290 899 l 160 749 l 242 749 z m 531 103 l 531 342 b 301 640 531 469 517 640 b 79 465 133 640 79 546 b 89 410 79 446 82 426 l 176 419 l 176 425 b 151 485 161 431 151 456 b 294 601 151 540 193 601 b 457 388 431 601 457 492 b 456 351 457 376 457 364 l 78 318 b 69 208 72 278 69 240 b 236 -10 69 47 143 -10 b 450 199 375 -10 426 106 l 457 199 l 457 0 l 613 0 l 613 14 b 531 103 578 14 531 29 z m 268 43 b 149 204 182 43 149 100 b 156 285 149 229 150 256 l 456 329 b 268 43 446 201 404 43 z "},"ä":{"ha":647,"x_min":0,"x_max":0,"o":"m 283 835 l 203 915 l 122 835 l 203 753 z m 490 835 l 411 915 l 331 835 l 411 753 z m 531 103 l 531 342 b 301 640 531 469 517 640 b 79 465 133 640 79 546 b 89 410 79 446 82 426 l 176 419 l 176 425 b 151 485 161 431 151 456 b 294 601 151 540 193 601 b 457 388 431 601 457 492 b 456 351 457 376 457 364 l 78 318 b 69 208 72 278 69 240 b 236 -10 69 47 143 -10 b 450 199 375 -10 426 106 l 457 199 l 457 0 l 613 0 l 613 14 b 531 103 578 14 531 29 z m 268 43 b 149 204 182 43 149 100 b 156 285 149 229 150 256 l 456 329 b 268 43 446 201 404 43 z "},"à":{"ha":647,"x_min":0,"x_max":0,"o":"m 413 700 l 421 714 b 258 922 331 776 292 844 l 193 857 b 413 700 251 783 319 735 z m 531 103 l 531 342 b 301 640 531 469 517 640 b 79 465 133 640 79 546 b 89 410 79 446 82 426 l 176 419 l 176 425 b 151 485 161 431 151 456 b 294 601 151 540 193 601 b 457 388 431 601 457 492 b 456 351 457 376 457 364 l 78 318 b 69 208 72 278 69 240 b 236 -10 69 47 143 -10 b 450 199 375 -10 426 106 l 457 199 l 457 0 l 613 0 l 613 14 b 531 103 578 14 531 29 z m 268 43 b 149 204 182 43 149 100 b 156 285 149 229 150 256 l 456 329 b 268 43 446 201 404 43 z "},"ā":{"ha":647,"x_min":0,"x_max":0,"o":"m 493 792 l 119 792 l 119 753 l 493 753 z m 531 103 l 531 342 b 301 640 531 469 517 640 b 79 465 133 640 79 546 b 89 410 79 446 82 426 l 176 419 l 176 425 b 151 485 161 431 151 456 b 294 601 151 540 193 601 b 457 388 431 601 457 492 b 456 351 457 376 457 364 l 78 318 b 69 208 72 278 69 240 b 236 -10 69 47 143 -10 b 450 199 375 -10 426 106 l 457 199 l 457 0 l 613 0 l 613 14 b 531 103 578 14 531 29 z m 268 43 b 149 204 182 43 149 100 b 156 285 149 229 150 256 l 456 329 b 268 43 446 201 404 43 z "},"ą":{"ha":647,"x_min":0,"x_max":0,"o":"m 481 0 l 613 0 l 613 14 b 531 103 578 14 531 29 l 531 342 b 301 640 531 469 517 640 b 79 465 133 640 79 546 b 89 410 79 446 82 426 l 176 419 l 176 425 b 151 485 161 431 151 456 b 294 601 151 540 193 601 b 457 388 431 601 457 492 b 456 351 457 376 457 364 l 78 318 b 69 208 72 278 69 240 b 236 -10 69 47 143 -10 b 450 199 375 -10 426 106 l 457 199 l 457 4 b 335 -156 390 -35 335 -90 b 458 -268 335 -224 382 -268 b 561 -239 497 -268 529 -257 l 521 -162 b 450 -193 499 -182 479 -193 b 390 -136 413 -193 390 -169 b 481 0 390 -82 422 -43 z m 268 43 b 149 204 182 43 149 100 b 156 285 149 229 150 256 l 456 329 b 268 43 446 201 404 43 z "},"å":{"ha":647,"x_min":0,"x_max":0,"o":"m 307 739 b 388 819 351 739 388 775 b 307 899 388 864 351 899 b 226 819 263 899 226 864 b 307 739 226 775 263 739 z m 307 865 b 354 819 333 865 354 844 b 307 772 354 793 333 772 b 261 819 281 772 261 793 b 307 865 261 844 281 865 z m 531 103 l 531 342 b 301 640 531 469 517 640 b 79 465 133 640 79 546 b 89 410 79 446 82 426 l 176 419 l 176 425 b 151 485 161 431 151 456 b 294 601 151 540 193 601 b 457 388 431 601 457 492 b 456 351 457 376 457 364 l 78 318 b 69 208 72 278 69 240 b 236 -10 69 47 143 -10 b 450 199 375 -10 426 106 l 457 199 l 457 0 l 613 0 l 613 14 b 531 103 578 14 531 29 z m 268 43 b 149 204 182 43 149 100 b 156 285 149 229 150 256 l 456 329 b 268 43 446 201 404 43 z "},"ã":{"ha":647,"x_min":0,"x_max":0,"o":"m 229 771 b 358 743 276 771 304 743 b 467 814 394 743 431 771 l 460 822 b 383 789 436 806 415 789 b 253 817 336 789 307 817 b 146 746 217 817 182 789 l 153 739 b 229 771 176 754 197 771 z m 531 103 l 531 342 b 301 640 531 469 517 640 b 79 465 133 640 79 546 b 89 410 79 446 82 426 l 176 419 l 176 425 b 151 485 161 431 151 456 b 294 601 151 540 193 601 b 457 388 431 601 457 492 b 456 351 457 376 457 364 l 78 318 b 69 208 72 278 69 240 b 236 -10 69 47 143 -10 b 450 199 375 -10 426 106 l 457 199 l 457 0 l 613 0 l 613 14 b 531 103 578 14 531 29 z m 268 43 b 149 204 182 43 149 100 b 156 285 149 229 150 256 l 456 329 b 268 43 446 201 404 43 z "},"æ":{"ha":1001,"x_min":0,"x_max":0,"o":"m 229 -10 b 457 201 368 -10 426 78 b 714 -10 485 67 569 -10 b 953 175 903 -10 949 136 l 939 178 b 738 38 932 144 885 38 b 532 318 608 38 535 128 l 935 318 b 942 401 939 347 942 375 b 718 640 942 532 888 640 b 499 500 622 640 546 601 b 299 640 471 592 415 640 b 79 465 131 640 79 546 b 89 410 79 446 82 426 l 176 419 l 176 425 b 151 485 161 431 151 456 b 292 601 151 540 188 601 b 447 388 428 601 447 492 l 446 351 l 78 318 b 69 208 72 278 69 240 b 229 -10 69 47 144 -10 z m 532 338 b 714 601 535 526 626 601 b 851 426 815 601 851 514 b 844 360 851 404 849 381 z m 261 43 b 149 204 188 43 149 100 b 156 285 149 229 150 256 l 444 329 b 261 43 435 219 394 43 z "},"b":{"ha":692,"x_min":0,"x_max":0,"o":"m 403 640 b 201 461 267 640 215 546 l 201 885 l 42 885 l 42 871 b 125 782 76 871 125 856 l 125 103 b 42 14 125 29 76 14 l 42 0 l 201 0 l 201 178 b 403 -10 218 90 268 -10 b 628 314 525 -10 628 60 b 403 640 628 571 525 640 z m 385 29 b 201 314 296 29 201 111 b 385 601 201 518 296 601 b 543 314 483 601 543 519 b 385 29 543 110 486 29 z "},"c":{"ha":603,"x_min":0,"x_max":0,"o":"m 449 408 l 546 397 b 550 438 549 411 550 425 b 331 640 550 551 464 640 b 49 317 168 640 49 536 b 324 -10 49 103 150 -10 b 554 207 485 -10 539 126 l 539 211 b 339 38 519 136 465 38 b 133 342 219 38 132 142 b 326 601 135 493 207 601 b 456 465 408 601 456 547 b 449 408 456 449 453 425 z "},"ć":{"ha":603,"x_min":0,"x_max":0,"o":"m 415 857 l 350 922 b 188 714 317 844 278 776 l 196 700 b 415 857 289 735 357 783 z m 449 408 l 546 397 b 550 438 549 411 550 425 b 331 640 550 551 464 640 b 49 317 168 640 49 536 b 324 -10 49 103 150 -10 b 554 207 485 -10 539 126 l 539 211 b 339 38 519 136 465 38 b 133 342 219 38 132 142 b 326 601 135 493 207 601 b 456 465 408 601 456 547 b 449 408 456 449 453 425 z "},"č":{"ha":603,"x_min":0,"x_max":0,"o":"m 154 886 l 285 736 l 315 736 l 447 886 l 364 886 l 301 800 l 236 886 z m 449 408 l 546 397 b 550 438 549 411 550 425 b 331 640 550 551 464 640 b 49 317 168 640 49 536 b 324 -10 49 103 150 -10 b 554 207 485 -10 539 126 l 539 211 b 339 38 519 136 465 38 b 133 342 219 38 132 142 b 326 601 135 493 207 601 b 456 465 408 601 456 547 b 449 408 456 449 453 425 z "},"ç":{"ha":603,"x_min":0,"x_max":0,"o":"m 554 207 l 539 211 b 339 38 519 136 465 38 b 133 342 219 38 132 142 b 326 601 135 493 207 601 b 456 465 408 601 456 547 b 449 408 456 449 453 425 l 546 397 b 550 438 549 411 550 425 b 331 640 550 551 464 640 b 49 317 168 640 49 536 b 279 -7 49 122 133 11 l 232 -108 b 294 -97 251 -101 267 -97 b 374 -175 346 -97 374 -129 b 313 -240 374 -222 347 -240 b 258 -192 279 -240 258 -219 b 269 -153 258 -178 263 -165 l 208 -140 b 201 -187 201 -157 201 -174 b 311 -278 201 -236 243 -278 b 429 -175 383 -278 429 -231 b 325 -76 429 -96 379 -76 b 304 -78 318 -76 311 -76 l 344 -8 b 554 207 489 1 539 131 z "},"ċ":{"ha":603,"x_min":0,"x_max":0,"o":"m 221 835 l 301 753 l 382 835 l 301 915 z m 449 408 l 546 397 b 550 438 549 411 550 425 b 331 640 550 551 464 640 b 49 317 168 640 49 536 b 324 -10 49 103 150 -10 b 554 207 485 -10 539 126 l 539 211 b 339 38 519 136 465 38 b 133 342 219 38 132 142 b 326 601 135 493 207 601 b 456 465 408 601 456 547 b 449 408 456 449 453 425 z "},"d":{"ha":696,"x_min":0,"x_max":0,"o":"m 571 103 l 571 885 l 411 885 l 411 871 b 494 782 446 871 494 856 l 494 469 b 294 640 479 551 426 640 b 69 314 172 640 69 571 b 294 -10 69 60 172 -10 b 494 171 425 -10 476 85 l 494 0 l 654 0 l 654 14 b 571 103 619 14 571 29 z m 313 29 b 154 314 211 29 154 110 b 313 601 154 519 214 601 b 494 356 394 601 482 529 l 494 272 b 313 29 482 100 394 29 z "},"ð":{"ha":650,"x_min":0,"x_max":0,"o":"m 440 783 l 579 821 l 569 858 l 403 814 b 201 890 340 858 271 883 l 199 876 b 364 804 261 865 317 842 l 208 763 l 218 724 l 397 772 b 511 446 463 700 504 592 b 294 640 481 553 404 640 b 69 325 168 640 69 550 b 344 -7 69 125 174 -7 b 594 386 533 -7 594 107 b 440 783 594 569 531 701 z m 344 32 b 154 324 221 32 154 136 b 313 601 154 503 214 601 b 513 276 428 601 513 432 b 344 32 513 143 468 32 z "},"ď":{"ha":808,"x_min":0,"x_max":0,"o":"m 707 921 l 626 842 l 707 760 l 707 582 l 717 582 l 788 842 z m 571 103 l 571 885 l 411 885 l 411 871 b 494 782 446 871 494 856 l 494 469 b 294 640 479 551 426 640 b 69 314 172 640 69 571 b 294 -10 69 60 172 -10 b 494 171 425 -10 476 85 l 494 0 l 654 0 l 654 14 b 571 103 619 14 571 29 z m 313 29 b 154 314 211 29 154 110 b 313 601 154 519 214 601 b 494 356 394 601 482 529 l 494 272 b 313 29 482 100 394 29 z "},"đ":{"ha":696,"x_min":0,"x_max":0,"o":"m 571 103 l 571 753 l 642 753 l 642 792 l 571 792 l 571 885 l 411 885 l 411 871 b 494 792 444 871 490 857 l 268 792 l 268 753 l 494 753 l 494 469 b 294 640 479 551 426 640 b 69 314 172 640 69 571 b 294 -10 69 60 172 -10 b 494 171 425 -10 476 85 l 494 0 l 654 0 l 654 14 b 571 103 619 14 571 29 z m 313 29 b 154 314 211 29 154 110 b 313 601 154 519 214 601 b 494 356 394 601 482 529 l 494 272 b 313 29 482 100 394 29 z "},"e":{"ha":604,"x_min":0,"x_max":0,"o":"m 542 192 b 340 38 535 158 488 38 b 133 318 214 38 140 136 l 540 318 b 547 401 544 347 547 375 b 321 640 547 532 489 640 b 49 318 156 640 49 526 b 317 -10 49 115 136 -10 b 556 189 506 -10 551 150 z m 317 601 b 461 426 418 601 461 514 b 454 360 461 404 458 382 l 133 343 b 317 601 133 538 228 601 z "},"é":{"ha":604,"x_min":0,"x_max":0,"o":"m 417 857 l 351 922 b 189 714 318 844 279 776 l 197 700 b 417 857 290 735 358 783 z m 542 192 b 340 38 535 158 488 38 b 133 318 214 38 140 136 l 540 318 b 547 401 544 347 547 375 b 321 640 547 532 489 640 b 49 318 156 640 49 526 b 317 -10 49 115 136 -10 b 556 189 506 -10 551 150 z m 317 601 b 461 426 418 601 461 514 b 454 360 461 404 458 382 l 133 343 b 317 601 133 538 228 601 z "},"ě":{"ha":604,"x_min":0,"x_max":0,"o":"m 317 736 l 449 886 l 365 886 l 303 800 l 238 886 l 156 886 l 286 736 z m 542 192 b 340 38 535 158 488 38 b 133 318 214 38 140 136 l 540 318 b 547 401 544 347 547 375 b 321 640 547 532 489 640 b 49 318 156 640 49 526 b 317 -10 49 115 136 -10 b 556 189 506 -10 551 150 z m 317 601 b 461 426 418 601 461 514 b 454 360 461 404 458 382 l 133 343 b 317 601 133 538 228 601 z "},"ê":{"ha":604,"x_min":0,"x_max":0,"o":"m 303 835 l 365 749 l 449 749 l 317 899 l 286 899 l 156 749 l 238 749 z m 542 192 b 340 38 535 158 488 38 b 133 318 214 38 140 136 l 540 318 b 547 401 544 347 547 375 b 321 640 547 532 489 640 b 49 318 156 640 49 526 b 317 -10 49 115 136 -10 b 556 189 506 -10 551 150 z m 317 601 b 461 426 418 601 461 514 b 454 360 461 404 458 382 l 133 343 b 317 601 133 538 228 601 z "},"ë":{"ha":604,"x_min":0,"x_max":0,"o":"m 279 835 l 199 915 l 118 835 l 199 753 z m 486 835 l 407 915 l 326 835 l 407 753 z m 542 192 b 340 38 535 158 488 38 b 133 318 214 38 140 136 l 540 318 b 547 401 544 347 547 375 b 321 640 547 532 489 640 b 49 318 156 640 49 526 b 317 -10 49 115 136 -10 b 556 189 506 -10 551 150 z m 317 601 b 461 426 418 601 461 514 b 454 360 461 404 458 382 l 133 343 b 317 601 133 538 228 601 z "},"ė":{"ha":604,"x_min":0,"x_max":0,"o":"m 383 835 l 303 915 l 222 835 l 303 753 z m 542 192 b 340 38 535 158 488 38 b 133 318 214 38 140 136 l 540 318 b 547 401 544 347 547 375 b 321 640 547 532 489 640 b 49 318 156 640 49 526 b 317 -10 49 115 136 -10 b 556 189 506 -10 551 150 z m 317 601 b 461 426 418 601 461 514 b 454 360 461 404 458 382 l 133 343 b 317 601 133 538 228 601 z "},"è":{"ha":604,"x_min":0,"x_max":0,"o":"m 408 700 l 417 714 b 254 922 326 776 288 844 l 189 857 b 408 700 247 783 315 735 z m 542 192 b 340 38 535 158 488 38 b 133 318 214 38 140 136 l 540 318 b 547 401 544 347 547 375 b 321 640 547 532 489 640 b 49 318 156 640 49 526 b 317 -10 49 115 136 -10 b 556 189 506 -10 551 150 z m 317 601 b 461 426 418 601 461 514 b 454 360 461 404 458 382 l 133 343 b 317 601 133 538 228 601 z "},"ē":{"ha":604,"x_min":0,"x_max":0,"o":"m 489 792 l 115 792 l 115 753 l 489 753 z m 542 192 b 340 38 535 158 488 38 b 133 318 214 38 140 136 l 540 318 b 547 401 544 347 547 375 b 321 640 547 532 489 640 b 49 318 156 640 49 526 b 317 -10 49 115 136 -10 b 556 189 506 -10 551 150 z m 317 601 b 461 426 418 601 461 514 b 454 360 461 404 458 382 l 133 343 b 317 601 133 538 228 601 z "},"ę":{"ha":604,"x_min":0,"x_max":0,"o":"m 414 7 b 556 189 522 49 553 158 l 542 192 b 340 38 535 158 488 38 b 133 318 214 38 140 136 l 540 318 b 547 401 544 347 547 375 b 321 640 547 532 489 640 b 49 318 156 640 49 526 b 317 -10 49 115 136 -10 b 363 -7 333 -10 349 -8 b 258 -156 304 -44 258 -96 b 382 -268 258 -224 306 -268 b 485 -239 421 -268 453 -257 l 444 -162 b 374 -193 422 -182 403 -193 b 314 -136 336 -193 314 -169 b 414 7 314 -79 350 -39 z m 317 601 b 461 426 418 601 461 514 b 454 360 461 404 458 382 l 133 343 b 317 601 133 538 228 601 z "},"f":{"ha":467,"x_min":0,"x_max":0,"o":"m 424 756 l 515 815 b 325 899 467 882 396 899 b 131 708 219 899 131 836 l 146 628 l 35 628 l 35 601 l 131 578 l 131 103 b 47 14 131 29 82 14 l 47 0 l 289 0 l 289 14 b 207 103 254 14 207 29 l 207 579 l 421 579 l 421 628 l 299 628 l 207 606 l 207 722 b 322 860 207 821 253 860 b 422 779 383 860 422 818 b 418 760 422 772 421 767 z "},"g":{"ha":668,"x_min":0,"x_max":0,"o":"m 629 628 l 396 628 b 314 640 374 636 347 640 b 85 426 161 640 85 544 b 199 235 85 343 122 271 l 82 189 b 200 50 72 117 115 64 l 42 -24 b 343 -235 33 -142 136 -235 b 607 -54 497 -235 607 -165 b 419 106 607 50 532 101 l 286 110 b 151 178 174 114 147 136 l 219 226 b 314 211 247 217 278 211 b 544 417 468 211 544 308 b 474 579 544 494 511 549 l 629 614 z m 314 250 b 168 426 217 250 168 328 b 314 603 168 524 217 603 b 461 426 413 603 461 524 b 314 250 461 328 413 250 z m 392 43 b 531 -67 504 40 531 -11 b 332 -201 531 -142 464 -201 b 118 -39 210 -201 107 -133 l 229 46 l 243 46 z "},"ğ":{"ha":668,"x_min":0,"x_max":0,"o":"m 319 735 b 456 885 393 735 460 775 l 374 885 b 319 763 393 811 369 763 b 264 885 268 763 244 811 l 182 885 b 319 735 178 785 244 735 z m 629 628 l 396 628 b 314 640 374 636 347 640 b 85 426 161 640 85 544 b 199 235 85 343 122 271 l 82 189 b 200 50 72 117 115 64 l 42 -24 b 343 -235 33 -142 136 -235 b 607 -54 497 -235 607 -165 b 419 106 607 50 532 101 l 286 110 b 151 178 174 114 147 136 l 219 226 b 314 211 247 217 278 211 b 544 417 468 211 544 308 b 474 579 544 494 511 549 l 629 614 z m 314 250 b 168 426 217 250 168 328 b 314 603 168 524 217 603 b 461 426 413 603 461 524 b 314 250 461 328 413 250 z m 392 43 b 531 -67 504 40 531 -11 b 332 -201 531 -142 464 -201 b 118 -39 210 -201 107 -133 l 229 46 l 243 46 z "},"ģ":{"ha":668,"x_min":0,"x_max":0,"o":"m 400 754 l 319 836 l 319 1014 l 310 1014 l 239 754 l 319 675 z m 629 628 l 396 628 b 314 640 374 636 347 640 b 85 426 161 640 85 544 b 199 235 85 343 122 271 l 82 189 b 200 50 72 117 115 64 l 42 -24 b 343 -235 33 -142 136 -235 b 607 -54 497 -235 607 -165 b 419 106 607 50 532 101 l 286 110 b 151 178 174 114 147 136 l 219 226 b 314 211 247 217 278 211 b 544 417 468 211 544 308 b 474 579 544 494 511 549 l 629 614 z m 314 250 b 168 426 217 250 168 328 b 314 603 168 524 217 603 b 461 426 413 603 461 524 b 314 250 461 328 413 250 z m 392 43 b 531 -67 504 40 531 -11 b 332 -201 531 -142 464 -201 b 118 -39 210 -201 107 -133 l 229 46 l 243 46 z "},"ġ":{"ha":668,"x_min":0,"x_max":0,"o":"m 400 835 l 319 915 l 239 835 l 319 753 z m 629 628 l 396 628 b 314 640 374 636 347 640 b 85 426 161 640 85 544 b 199 235 85 343 122 271 l 82 189 b 200 50 72 117 115 64 l 42 -24 b 343 -235 33 -142 136 -235 b 607 -54 497 -235 607 -165 b 419 106 607 50 532 101 l 286 110 b 151 178 174 114 147 136 l 219 226 b 314 211 247 217 278 211 b 544 417 468 211 544 308 b 474 579 544 494 511 549 l 629 614 z m 314 250 b 168 426 217 250 168 328 b 314 603 168 524 217 603 b 461 426 413 603 461 524 b 314 250 461 328 413 250 z m 392 43 b 531 -67 504 40 531 -11 b 332 -201 531 -142 464 -201 b 118 -39 210 -201 107 -133 l 229 46 l 243 46 z "},"h":{"ha":704,"x_min":0,"x_max":0,"o":"m 581 103 l 581 429 b 408 640 581 563 526 640 b 207 460 292 640 224 546 l 201 460 l 201 885 l 42 885 l 42 871 b 125 782 76 871 125 856 l 125 103 b 42 14 125 29 76 14 l 42 0 l 283 0 l 283 14 b 201 103 249 14 201 29 l 201 250 b 383 601 201 504 285 601 b 503 418 471 601 503 542 l 503 103 b 419 14 503 29 454 14 l 419 0 l 663 0 l 663 14 b 581 103 628 14 581 29 z "},"ħ":{"ha":704,"x_min":0,"x_max":0,"o":"m 581 103 l 581 429 b 408 640 581 563 526 640 b 207 460 292 640 224 546 l 201 460 l 201 753 l 421 753 l 421 792 l 201 792 l 201 885 l 42 885 l 42 871 b 125 792 75 871 121 857 l 47 792 l 47 753 l 125 753 l 125 103 b 42 14 125 29 76 14 l 42 0 l 283 0 l 283 14 b 201 103 249 14 201 29 l 201 250 b 383 601 201 504 285 601 b 503 418 471 601 503 542 l 503 103 b 419 14 503 29 454 14 l 419 0 l 663 0 l 663 14 b 581 103 628 14 581 29 z "},"i":{"ha":339,"x_min":0,"x_max":0,"o":"m 89 835 l 169 753 l 250 835 l 169 915 z m 208 103 l 208 628 l 49 628 l 49 614 b 132 525 83 614 132 599 l 132 103 b 49 14 132 29 83 14 l 49 0 l 290 0 l 290 14 b 208 103 256 14 208 29 z "},"ı":{"ha":339,"x_min":0,"x_max":0,"o":"m 208 103 l 208 628 l 49 628 l 49 614 b 132 525 83 614 132 599 l 132 103 b 49 14 132 29 83 14 l 49 0 l 290 0 l 290 14 b 208 103 256 14 208 29 z "},"í":{"ha":339,"x_min":0,"x_max":0,"o":"m 283 857 l 218 922 b 56 714 185 844 146 776 l 64 700 b 283 857 157 735 225 783 z m 208 103 l 208 628 l 49 628 l 49 614 b 132 525 83 614 132 599 l 132 103 b 49 14 132 29 83 14 l 49 0 l 290 0 l 290 14 b 208 103 256 14 208 29 z "},"î":{"ha":339,"x_min":0,"x_max":0,"o":"m 22 749 l 104 749 l 169 835 l 232 749 l 315 749 l 183 899 l 153 899 z m 208 103 l 208 628 l 49 628 l 49 614 b 132 525 83 614 132 599 l 132 103 b 49 14 132 29 83 14 l 49 0 l 290 0 l 290 14 b 208 103 256 14 208 29 z "},"ï":{"ha":339,"x_min":0,"x_max":0,"o":"m 65 753 l 146 835 l 65 915 l -15 835 z m 274 753 l 353 835 l 274 915 l 193 835 z m 208 103 l 208 628 l 49 628 l 49 614 b 132 525 83 614 132 599 l 132 103 b 49 14 132 29 83 14 l 49 0 l 290 0 l 290 14 b 208 103 256 14 208 29 z "},"ì":{"ha":339,"x_min":0,"x_max":0,"o":"m 56 857 b 275 700 114 783 182 735 l 283 714 b 121 922 193 776 154 844 z m 208 103 l 208 628 l 49 628 l 49 614 b 132 525 83 614 132 599 l 132 103 b 49 14 132 29 83 14 l 49 0 l 290 0 l 290 14 b 208 103 256 14 208 29 z "},"ī":{"ha":339,"x_min":0,"x_max":0,"o":"m -18 792 l -18 753 l 356 753 l 356 792 z m 208 103 l 208 628 l 49 628 l 49 614 b 132 525 83 614 132 599 l 132 103 b 49 14 132 29 83 14 l 49 0 l 290 0 l 290 14 b 208 103 256 14 208 29 z "},"į":{"ha":339,"x_min":0,"x_max":0,"o":"m 250 835 l 169 915 l 89 835 l 169 753 z m 199 0 l 290 0 l 290 14 b 208 103 256 14 208 29 l 208 628 l 49 628 l 49 614 b 132 525 83 614 132 599 l 132 103 b 49 14 132 29 83 14 l 49 0 l 167 0 b 53 -156 104 -39 53 -93 b 176 -268 53 -224 100 -268 b 279 -239 215 -268 247 -257 l 239 -162 b 168 -193 217 -182 197 -193 b 108 -136 131 -193 108 -169 b 199 0 108 -82 140 -43 z "},"j":{"ha":285,"x_min":0,"x_max":0,"o":"m 68 835 l 149 753 l 229 835 l 149 915 z m 188 628 l 28 628 l 28 614 b 111 525 63 614 111 599 l 111 0 l 92 -361 l 106 -361 l 188 -69 z "},"k":{"ha":703,"x_min":0,"x_max":0,"o":"m 546 88 l 389 336 l 313 347 l 475 540 b 631 614 522 597 582 614 l 631 628 l 331 628 l 331 614 b 431 549 400 614 479 606 l 201 275 l 201 885 l 42 885 l 42 871 b 125 782 76 871 125 856 l 125 103 b 42 14 125 29 76 14 l 42 0 l 283 0 l 283 14 b 201 103 249 14 201 29 l 201 215 l 301 333 l 515 0 l 682 0 l 682 14 b 546 88 647 14 585 25 z "},"ķ":{"ha":703,"x_min":0,"x_max":0,"o":"m 546 88 l 389 336 l 313 347 l 475 540 b 631 614 522 597 582 614 l 631 628 l 331 628 l 331 614 b 431 549 400 614 479 606 l 201 275 l 201 885 l 42 885 l 42 871 b 125 782 76 871 125 856 l 125 103 b 42 14 125 29 76 14 l 42 0 l 283 0 l 283 14 b 201 103 249 14 201 29 l 201 215 l 301 333 l 515 0 l 682 0 l 682 14 b 546 88 647 14 585 25 z m 282 -126 l 363 -208 l 363 -386 l 372 -386 l 443 -126 l 363 -47 z "},"l":{"ha":335,"x_min":0,"x_max":0,"o":"m 208 103 l 208 885 l 49 885 l 49 871 b 132 782 83 871 132 856 l 132 103 b 49 14 132 29 83 14 l 49 0 l 290 0 l 290 14 b 208 103 256 14 208 29 z "},"ĺ":{"ha":335,"x_min":0,"x_max":0,"o":"m 283 1090 l 218 1156 b 56 961 185 1078 146 1010 l 64 947 b 283 1090 157 968 225 1017 z m 208 103 l 208 885 l 49 885 l 49 871 b 132 782 83 871 132 856 l 132 103 b 49 14 132 29 83 14 l 49 0 l 290 0 l 290 14 b 208 103 256 14 208 29 z "},"ľ":{"ha":447,"x_min":0,"x_max":0,"o":"m 265 842 l 346 760 l 346 582 l 356 582 l 426 842 l 346 921 z m 208 103 l 208 885 l 49 885 l 49 871 b 132 782 83 871 132 856 l 132 103 b 49 14 132 29 83 14 l 49 0 l 290 0 l 290 14 b 208 103 256 14 208 29 z "},"ļ":{"ha":335,"x_min":0,"x_max":0,"o":"m 208 103 l 208 885 l 49 885 l 49 871 b 132 782 83 871 132 856 l 132 103 b 49 14 132 29 83 14 l 49 0 l 290 0 l 290 14 b 208 103 256 14 208 29 z m 89 -126 l 169 -208 l 169 -386 l 179 -386 l 250 -126 l 169 -47 z "},"ł":{"ha":410,"x_min":0,"x_max":0,"o":"m 246 103 l 246 439 l 365 539 l 333 576 l 246 503 l 246 885 l 86 885 l 86 871 b 169 782 121 871 169 856 l 169 439 l 49 338 l 81 300 l 169 375 l 169 103 b 86 14 169 29 121 14 l 86 0 l 328 0 l 328 14 b 246 103 293 14 246 29 z "},"m":{"ha":1033,"x_min":0,"x_max":0,"o":"m 910 103 l 910 429 b 749 640 910 558 868 640 b 564 461 618 640 575 519 l 557 461 b 397 640 550 572 507 640 b 213 461 267 640 224 519 l 207 461 l 207 628 l 47 628 l 47 614 b 131 525 82 614 131 599 l 131 103 b 47 14 131 29 82 14 l 47 0 l 289 0 l 289 14 b 207 103 254 14 207 29 l 207 249 b 374 603 207 506 285 603 b 482 419 464 603 482 539 l 482 103 b 399 14 482 29 433 14 l 399 0 l 640 0 l 640 14 b 558 103 606 14 558 29 l 558 249 b 725 603 558 506 636 603 b 833 419 815 603 833 539 l 833 103 b 750 14 833 29 785 14 l 750 0 l 992 0 l 992 14 b 910 103 957 14 910 29 z "},"n":{"ha":710,"x_min":0,"x_max":0,"o":"m 586 103 l 586 429 b 414 640 586 563 532 640 b 213 460 297 640 229 546 l 207 460 l 207 628 l 47 628 l 47 614 b 131 525 82 614 131 599 l 131 103 b 47 14 131 29 82 14 l 47 0 l 289 0 l 289 14 b 207 103 254 14 207 29 l 207 250 b 389 601 207 504 290 601 b 508 418 476 601 508 542 l 508 103 b 425 14 508 29 460 14 l 425 0 l 668 0 l 668 14 b 586 103 633 14 586 29 z "},"ń":{"ha":710,"x_min":0,"x_max":0,"o":"m 472 857 l 407 922 b 244 714 374 844 335 776 l 253 700 b 472 857 346 735 414 783 z m 586 103 l 586 429 b 414 640 586 563 532 640 b 213 460 297 640 229 546 l 207 460 l 207 628 l 47 628 l 47 614 b 131 525 82 614 131 599 l 131 103 b 47 14 131 29 82 14 l 47 0 l 289 0 l 289 14 b 207 103 254 14 207 29 l 207 250 b 389 601 207 504 290 601 b 508 418 476 601 508 542 l 508 103 b 425 14 508 29 460 14 l 425 0 l 668 0 l 668 14 b 586 103 633 14 586 29 z "},"ň":{"ha":710,"x_min":0,"x_max":0,"o":"m 372 736 l 504 886 l 421 886 l 358 800 l 293 886 l 211 886 l 342 736 z m 586 103 l 586 429 b 414 640 586 563 532 640 b 213 460 297 640 229 546 l 207 460 l 207 628 l 47 628 l 47 614 b 131 525 82 614 131 599 l 131 103 b 47 14 131 29 82 14 l 47 0 l 289 0 l 289 14 b 207 103 254 14 207 29 l 207 250 b 389 601 207 504 290 601 b 508 418 476 601 508 542 l 508 103 b 425 14 508 29 460 14 l 425 0 l 668 0 l 668 14 b 586 103 633 14 586 29 z "},"ņ":{"ha":710,"x_min":0,"x_max":0,"o":"m 586 103 l 586 429 b 414 640 586 563 532 640 b 213 460 297 640 229 546 l 207 460 l 207 628 l 47 628 l 47 614 b 131 525 82 614 131 599 l 131 103 b 47 14 131 29 82 14 l 47 0 l 289 0 l 289 14 b 207 103 254 14 207 29 l 207 250 b 389 601 207 504 290 601 b 508 418 476 601 508 542 l 508 103 b 425 14 508 29 460 14 l 425 0 l 668 0 l 668 14 b 586 103 633 14 586 29 z m 278 -126 l 358 -208 l 358 -386 l 368 -386 l 439 -126 l 358 -47 z "},"ŋ":{"ha":669,"x_min":0,"x_max":0,"o":"m 414 640 b 213 460 303 640 236 551 l 207 460 l 207 628 l 47 628 l 47 614 b 131 525 82 614 131 599 l 131 103 b 47 14 131 29 82 14 l 47 0 l 289 0 l 289 14 b 207 103 254 14 207 29 l 207 250 b 393 601 207 518 317 601 b 508 376 482 601 508 528 l 508 -199 b 474 -239 508 -226 497 -239 b 417 -174 438 -239 421 -197 l 338 -197 b 453 -268 349 -239 397 -268 b 586 -151 529 -268 586 -235 l 586 429 b 414 640 586 563 532 640 z "},"ñ":{"ha":710,"x_min":0,"x_max":0,"o":"m 281 771 b 410 743 328 771 356 743 b 518 814 446 743 482 771 l 511 822 b 435 789 488 806 467 789 b 304 817 388 789 358 817 b 197 746 268 817 233 789 l 204 739 b 281 771 228 754 249 771 z m 586 103 l 586 429 b 414 640 586 563 532 640 b 213 460 297 640 229 546 l 207 460 l 207 628 l 47 628 l 47 614 b 131 525 82 614 131 599 l 131 103 b 47 14 131 29 82 14 l 47 0 l 289 0 l 289 14 b 207 103 254 14 207 29 l 207 250 b 389 601 207 504 290 601 b 508 418 476 601 508 542 l 508 103 b 425 14 508 29 460 14 l 425 0 l 668 0 l 668 14 b 586 103 633 14 586 29 z "},"o":{"ha":639,"x_min":0,"x_max":0,"o":"m 319 640 b 49 315 139 640 49 493 b 319 -10 49 136 139 -10 b 590 315 499 -10 590 136 b 319 640 590 493 499 640 z m 319 29 b 133 315 188 29 133 157 b 319 601 133 472 188 601 b 506 315 451 601 506 472 b 319 29 506 157 451 29 z "},"ó":{"ha":639,"x_min":0,"x_max":0,"o":"m 433 857 l 368 922 b 206 714 335 844 296 776 l 214 700 b 433 857 307 735 375 783 z m 319 640 b 49 315 139 640 49 493 b 319 -10 49 136 139 -10 b 590 315 499 -10 590 136 b 319 640 590 493 499 640 z m 319 29 b 133 315 188 29 133 157 b 319 601 133 472 188 601 b 506 315 451 601 506 472 b 319 29 506 157 451 29 z "},"ô":{"ha":639,"x_min":0,"x_max":0,"o":"m 172 749 l 254 749 l 319 835 l 382 749 l 465 749 l 333 899 l 303 899 z m 319 640 b 49 315 139 640 49 493 b 319 -10 49 136 139 -10 b 590 315 499 -10 590 136 b 319 640 590 493 499 640 z m 319 29 b 133 315 188 29 133 157 b 319 601 133 472 188 601 b 506 315 451 601 506 472 b 319 29 506 157 451 29 z "},"ö":{"ha":639,"x_min":0,"x_max":0,"o":"m 215 753 l 296 835 l 215 915 l 135 835 z m 424 753 l 503 835 l 424 915 l 343 835 z m 319 640 b 49 315 139 640 49 493 b 319 -10 49 136 139 -10 b 590 315 499 -10 590 136 b 319 640 590 493 499 640 z m 319 29 b 133 315 188 29 133 157 b 319 601 133 472 188 601 b 506 315 451 601 506 472 b 319 29 506 157 451 29 z "},"ò":{"ha":639,"x_min":0,"x_max":0,"o":"m 206 857 b 425 700 264 783 332 735 l 433 714 b 271 922 343 776 304 844 z m 319 640 b 49 315 139 640 49 493 b 319 -10 49 136 139 -10 b 590 315 499 -10 590 136 b 319 640 590 493 499 640 z m 319 29 b 133 315 188 29 133 157 b 319 601 133 472 188 601 b 506 315 451 601 506 472 b 319 29 506 157 451 29 z "},"ő":{"ha":639,"x_min":0,"x_max":0,"o":"m 313 897 l 232 897 l 232 711 l 256 711 z m 440 897 l 360 897 l 360 711 l 382 711 z m 319 640 b 49 315 139 640 49 493 b 319 -10 49 136 139 -10 b 590 315 499 -10 590 136 b 319 640 590 493 499 640 z m 319 29 b 133 315 188 29 133 157 b 319 601 133 472 188 601 b 506 315 451 601 506 472 b 319 29 506 157 451 29 z "},"ō":{"ha":639,"x_min":0,"x_max":0,"o":"m 132 792 l 132 753 l 506 753 l 506 792 z m 319 640 b 49 315 139 640 49 493 b 319 -10 49 136 139 -10 b 590 315 499 -10 590 136 b 319 640 590 493 499 640 z m 319 29 b 133 315 188 29 133 157 b 319 601 133 472 188 601 b 506 315 451 601 506 472 b 319 29 506 157 451 29 z "},"ø":{"ha":639,"x_min":0,"x_max":0,"o":"m 447 610 l 479 696 l 442 710 l 411 625 b 319 640 383 635 353 640 b 49 315 139 640 49 493 b 192 21 49 185 96 74 l 161 -61 l 199 -76 l 228 4 b 319 -10 256 -4 286 -10 b 590 315 499 -10 590 136 b 447 610 590 444 542 557 z m 133 315 b 319 601 133 472 188 601 b 396 583 349 601 374 594 l 210 71 b 133 315 157 121 133 213 z m 319 29 b 243 47 290 29 265 35 l 429 560 b 506 315 482 508 506 418 b 319 29 506 157 451 29 z "},"õ":{"ha":639,"x_min":0,"x_max":0,"o":"m 158 746 l 165 739 b 242 771 189 754 210 771 b 371 743 289 771 317 743 b 479 814 407 743 443 771 l 472 822 b 396 789 449 806 428 789 b 265 817 349 789 319 817 b 158 746 229 817 194 789 z m 319 640 b 49 315 139 640 49 493 b 319 -10 49 136 139 -10 b 590 315 499 -10 590 136 b 319 640 590 493 499 640 z m 319 29 b 133 315 188 29 133 157 b 319 601 133 472 188 601 b 506 315 451 601 506 472 b 319 29 506 157 451 29 z "},"œ":{"ha":1056,"x_min":0,"x_max":0,"o":"m 49 315 b 321 -10 49 136 140 -10 b 544 142 425 -10 500 40 b 782 -10 585 35 657 -10 b 1007 190 957 -10 1007 144 l 993 192 b 806 38 993 153 939 38 b 593 318 663 38 594 126 l 989 318 b 996 401 993 347 996 375 b 772 640 996 532 942 640 b 546 485 668 640 590 596 b 321 640 503 589 428 640 b 49 315 140 640 49 493 z m 135 315 b 321 601 135 472 189 601 b 507 315 453 601 507 472 b 321 29 507 157 453 29 b 135 315 189 29 135 157 z m 593 338 b 768 601 600 542 681 601 b 906 426 869 601 906 514 b 899 360 906 404 903 381 z "},"p":{"ha":674,"x_min":0,"x_max":0,"o":"m 385 640 b 183 461 249 640 197 546 l 183 628 l 24 628 l 24 614 b 107 525 58 614 107 599 l 107 -167 b 24 -256 107 -240 58 -256 l 24 -269 l 183 -269 l 183 178 b 385 -10 200 90 250 -10 b 610 314 507 -10 610 60 b 385 640 610 571 507 640 z m 367 29 b 183 314 278 29 183 111 b 367 601 183 518 278 601 b 525 314 465 601 525 519 b 367 29 525 110 468 29 z "},"þ":{"ha":671,"x_min":0,"x_max":0,"o":"m 382 640 b 181 461 246 640 194 546 l 181 885 l 21 885 l 21 871 b 104 782 56 871 104 856 l 104 -167 b 21 -256 104 -240 56 -256 l 21 -269 l 181 -269 l 181 178 b 382 -10 197 90 247 -10 b 607 314 504 -10 607 60 b 382 640 607 571 504 640 z m 364 29 b 181 314 275 29 181 111 b 364 601 181 518 275 601 b 522 314 463 601 522 519 b 364 29 522 110 465 29 z "},"q":{"ha":674,"x_min":0,"x_max":0,"o":"m 650 614 l 650 628 l 490 628 l 490 461 b 289 640 476 546 425 640 b 64 314 167 640 64 571 b 289 -10 64 60 167 -10 b 490 178 424 -10 474 90 l 490 -269 l 650 -269 l 650 -256 b 567 -167 615 -256 567 -240 l 567 525 b 650 614 567 599 615 614 z m 307 29 b 149 314 206 29 149 110 b 307 601 149 519 208 601 b 490 314 396 601 490 518 b 307 29 490 111 396 29 z "},"r":{"ha":535,"x_min":0,"x_max":0,"o":"m 399 636 b 211 403 282 636 225 497 l 207 403 l 207 628 l 47 628 l 47 614 b 131 525 82 614 131 599 l 131 103 b 47 14 131 29 82 14 l 47 0 l 289 0 l 289 14 b 207 103 254 14 207 29 l 207 186 b 372 572 207 482 285 572 b 454 497 431 572 457 536 l 460 496 l 496 596 b 399 636 482 617 444 636 z "},"ŕ":{"ha":535,"x_min":0,"x_max":0,"o":"m 383 857 l 318 922 b 156 714 285 844 246 776 l 164 700 b 383 857 257 735 325 783 z m 399 636 b 211 403 282 636 225 497 l 207 403 l 207 628 l 47 628 l 47 614 b 131 525 82 614 131 599 l 131 103 b 47 14 131 29 82 14 l 47 0 l 289 0 l 289 14 b 207 103 254 14 207 29 l 207 186 b 372 572 207 482 285 572 b 454 497 431 572 457 536 l 460 496 l 496 596 b 399 636 482 617 444 636 z "},"ř":{"ha":535,"x_min":0,"x_max":0,"o":"m 283 736 l 415 886 l 332 886 l 269 800 l 204 886 l 122 886 l 253 736 z m 399 636 b 211 403 282 636 225 497 l 207 403 l 207 628 l 47 628 l 47 614 b 131 525 82 614 131 599 l 131 103 b 47 14 131 29 82 14 l 47 0 l 289 0 l 289 14 b 207 103 254 14 207 29 l 207 186 b 372 572 207 482 285 572 b 454 497 431 572 457 536 l 460 496 l 496 596 b 399 636 482 617 444 636 z "},"ŗ":{"ha":535,"x_min":0,"x_max":0,"o":"m 399 636 b 211 403 282 636 225 497 l 207 403 l 207 628 l 47 628 l 47 614 b 131 525 82 614 131 599 l 131 103 b 47 14 131 29 82 14 l 47 0 l 289 0 l 289 14 b 207 103 254 14 207 29 l 207 186 b 372 572 207 482 285 572 b 454 497 431 572 457 536 l 460 496 l 496 596 b 399 636 482 617 444 636 z m 92 -126 l 172 -208 l 172 -386 l 182 -386 l 253 -126 l 172 -47 z "},"s":{"ha":575,"x_min":0,"x_max":0,"o":"m 378 346 l 244 390 b 154 493 188 410 154 436 b 292 601 154 556 208 601 b 492 403 393 601 457 543 l 506 403 l 496 574 b 288 640 447 615 364 640 b 82 482 138 640 82 557 b 214 318 82 394 131 346 l 332 278 b 440 157 414 250 440 213 b 293 29 440 74 385 29 b 83 292 172 29 100 128 l 69 292 l 69 90 b 293 -10 103 46 174 -10 b 513 175 393 -10 513 17 b 378 346 513 269 464 317 z "},"ś":{"ha":575,"x_min":0,"x_max":0,"o":"m 406 857 l 340 922 b 178 714 307 844 268 776 l 186 700 b 406 857 279 735 347 783 z m 378 346 l 244 390 b 154 493 188 410 154 436 b 292 601 154 556 208 601 b 492 403 393 601 457 543 l 506 403 l 496 574 b 288 640 447 615 364 640 b 82 482 138 640 82 557 b 214 318 82 394 131 346 l 332 278 b 440 157 414 250 440 213 b 293 29 440 74 385 29 b 83 292 172 29 100 128 l 69 292 l 69 90 b 293 -10 103 46 174 -10 b 513 175 393 -10 513 17 b 378 346 513 269 464 317 z "},"š":{"ha":575,"x_min":0,"x_max":0,"o":"m 144 886 l 275 736 l 306 736 l 438 886 l 354 886 l 292 800 l 226 886 z m 378 346 l 244 390 b 154 493 188 410 154 436 b 292 601 154 556 208 601 b 492 403 393 601 457 543 l 506 403 l 496 574 b 288 640 447 615 364 640 b 82 482 138 640 82 557 b 214 318 82 394 131 346 l 332 278 b 440 157 414 250 440 213 b 293 29 440 74 385 29 b 83 292 172 29 100 128 l 69 292 l 69 90 b 293 -10 103 46 174 -10 b 513 175 393 -10 513 17 b 378 346 513 269 464 317 z "},"ş":{"ha":575,"x_min":0,"x_max":0,"o":"m 513 175 b 378 346 513 269 464 317 l 244 390 b 154 493 188 410 154 436 b 292 601 154 556 208 601 b 492 403 393 601 457 543 l 506 403 l 496 574 b 288 640 447 615 364 640 b 82 482 138 640 82 557 b 214 318 82 394 131 346 l 332 278 b 440 157 414 250 440 213 b 293 29 440 74 385 29 b 83 292 172 29 100 128 l 69 292 l 69 90 b 256 -8 99 51 158 3 l 208 -108 b 271 -97 228 -101 243 -97 b 350 -175 322 -97 350 -129 b 289 -240 350 -222 324 -240 b 235 -192 256 -240 235 -219 b 246 -153 235 -178 239 -165 l 185 -140 b 178 -187 178 -157 178 -174 b 288 -278 178 -236 219 -278 b 406 -175 360 -278 406 -231 b 301 -76 406 -96 356 -76 b 281 -78 294 -76 288 -76 l 321 -8 b 513 175 414 -4 513 31 z "},"ș":{"ha":575,"x_min":0,"x_max":0,"o":"m 378 346 l 244 390 b 154 493 188 410 154 436 b 292 601 154 556 208 601 b 492 403 393 601 457 543 l 506 403 l 496 574 b 288 640 447 615 364 640 b 82 482 138 640 82 557 b 214 318 82 394 131 346 l 332 278 b 440 157 414 250 440 213 b 293 29 440 74 385 29 b 83 292 172 29 100 128 l 69 292 l 69 90 b 293 -10 103 46 174 -10 b 513 175 393 -10 513 17 b 378 346 513 269 464 317 z m 211 -126 l 292 -208 l 292 -386 l 301 -386 l 372 -126 l 292 -47 z "},"ß":{"ha":760,"x_min":0,"x_max":0,"o":"m 488 479 l 675 632 b 424 899 690 789 601 899 b 142 628 265 899 147 801 l 46 628 l 46 601 l 142 578 l 142 113 b 42 15 142 32 83 15 l 42 0 l 224 0 l 224 624 b 424 857 224 799 317 857 b 593 664 546 857 606 779 l 464 482 l 367 468 l 367 458 l 383 458 b 632 244 546 458 632 379 b 426 11 632 122 558 42 l 426 -1 b 718 239 624 -1 718 103 b 488 479 718 378 617 457 z "},"t":{"ha":451,"x_min":0,"x_max":0,"o":"m 404 114 b 307 43 404 114 389 43 b 207 171 244 43 207 76 l 207 579 l 414 579 l 414 628 l 292 628 l 207 607 l 207 822 l 192 822 b 42 611 181 694 136 633 l 42 579 l 129 579 l 129 163 b 281 -10 129 56 175 -10 b 417 114 410 -10 417 114 z "},"ŧ":{"ha":451,"x_min":0,"x_max":0,"o":"m 404 114 b 307 43 404 114 389 43 b 207 171 244 43 207 76 l 207 378 l 415 378 l 415 417 l 207 417 l 207 579 l 414 579 l 414 628 l 292 628 l 207 607 l 207 822 l 192 822 b 42 611 181 694 136 633 l 42 579 l 129 579 l 129 417 l 42 417 l 42 378 l 129 378 l 129 163 b 281 -10 129 56 175 -10 b 417 114 410 -10 417 114 z "},"ť":{"ha":451,"x_min":0,"x_max":0,"o":"m 336 679 l 346 679 l 417 842 l 336 921 l 256 842 l 336 788 z m 307 43 b 207 171 244 43 207 76 l 207 579 l 414 579 l 414 628 l 292 628 l 207 607 l 207 822 l 192 822 b 42 611 181 694 136 633 l 42 579 l 129 579 l 129 163 b 281 -10 129 56 175 -10 b 417 114 410 -10 417 114 l 404 114 b 307 43 404 114 389 43 z "},"ţ":{"ha":451,"x_min":0,"x_max":0,"o":"m 274 -76 b 253 -78 267 -76 260 -76 l 293 -10 b 417 114 410 -1 417 114 l 404 114 b 307 43 404 114 389 43 b 207 171 244 43 207 76 l 207 579 l 414 579 l 414 628 l 292 628 l 207 607 l 207 822 l 192 822 b 42 611 181 694 136 633 l 42 579 l 129 579 l 129 163 b 229 -4 129 75 160 15 l 181 -108 b 243 -97 200 -101 215 -97 b 322 -175 294 -97 322 -129 b 261 -240 322 -222 296 -240 b 207 -192 228 -240 207 -219 b 218 -153 207 -178 211 -165 l 157 -140 b 150 -187 150 -157 150 -174 b 260 -278 150 -236 192 -278 b 378 -175 332 -278 378 -231 b 274 -76 378 -96 328 -76 z "},"ț":{"ha":451,"x_min":0,"x_max":0,"o":"m 404 114 b 307 43 404 114 389 43 b 207 171 244 43 207 76 l 207 579 l 414 579 l 414 628 l 292 628 l 207 607 l 207 822 l 192 822 b 42 611 181 694 136 633 l 42 579 l 129 579 l 129 163 b 281 -10 129 56 175 -10 b 417 114 410 -10 417 114 z m 183 -126 l 264 -208 l 264 -386 l 274 -386 l 344 -126 l 264 -47 z "},"u":{"ha":686,"x_min":0,"x_max":0,"o":"m 561 103 l 561 628 l 403 628 l 403 614 b 485 525 438 614 485 599 l 485 379 b 304 28 485 125 406 28 b 188 211 219 28 188 88 l 188 628 l 28 628 l 28 614 b 110 525 63 614 110 599 l 110 186 b 279 -11 110 53 164 -11 b 479 169 399 -11 463 83 l 485 169 l 485 0 l 644 0 l 644 14 b 561 103 610 14 561 29 z "},"ú":{"ha":686,"x_min":0,"x_max":0,"o":"m 449 857 l 383 922 b 221 714 350 844 311 776 l 229 700 b 449 857 322 735 390 783 z m 561 103 l 561 628 l 403 628 l 403 614 b 485 525 438 614 485 599 l 485 379 b 304 28 485 125 406 28 b 188 211 219 28 188 88 l 188 628 l 28 628 l 28 614 b 110 525 63 614 110 599 l 110 186 b 279 -11 110 53 164 -11 b 479 169 399 -11 463 83 l 485 169 l 485 0 l 644 0 l 644 14 b 561 103 610 14 561 29 z "},"û":{"ha":686,"x_min":0,"x_max":0,"o":"m 335 835 l 397 749 l 481 749 l 349 899 l 318 899 l 188 749 l 269 749 z m 561 103 l 561 628 l 403 628 l 403 614 b 485 525 438 614 485 599 l 485 379 b 304 28 485 125 406 28 b 188 211 219 28 188 88 l 188 628 l 28 628 l 28 614 b 110 525 63 614 110 599 l 110 186 b 279 -11 110 53 164 -11 b 479 169 399 -11 463 83 l 485 169 l 485 0 l 644 0 l 644 14 b 561 103 610 14 561 29 z "},"ü":{"ha":686,"x_min":0,"x_max":0,"o":"m 311 835 l 231 915 l 150 835 l 231 753 z m 518 835 l 439 915 l 358 835 l 439 753 z m 561 103 l 561 628 l 403 628 l 403 614 b 485 525 438 614 485 599 l 485 379 b 304 28 485 125 406 28 b 188 211 219 28 188 88 l 188 628 l 28 628 l 28 614 b 110 525 63 614 110 599 l 110 186 b 279 -11 110 53 164 -11 b 479 169 399 -11 463 83 l 485 169 l 485 0 l 644 0 l 644 14 b 561 103 610 14 561 29 z "},"ù":{"ha":686,"x_min":0,"x_max":0,"o":"m 440 700 l 449 714 b 286 922 358 776 319 844 l 221 857 b 440 700 279 783 347 735 z m 561 103 l 561 628 l 403 628 l 403 614 b 485 525 438 614 485 599 l 485 379 b 304 28 485 125 406 28 b 188 211 219 28 188 88 l 188 628 l 28 628 l 28 614 b 110 525 63 614 110 599 l 110 186 b 279 -11 110 53 164 -11 b 479 169 399 -11 463 83 l 485 169 l 485 0 l 644 0 l 644 14 b 561 103 610 14 561 29 z "},"ű":{"ha":686,"x_min":0,"x_max":0,"o":"m 328 897 l 247 897 l 247 711 l 271 711 z m 456 897 l 375 897 l 375 711 l 397 711 z m 561 103 l 561 628 l 403 628 l 403 614 b 485 525 438 614 485 599 l 485 379 b 304 28 485 125 406 28 b 188 211 219 28 188 88 l 188 628 l 28 628 l 28 614 b 110 525 63 614 110 599 l 110 186 b 279 -11 110 53 164 -11 b 479 169 399 -11 463 83 l 485 169 l 485 0 l 644 0 l 644 14 b 561 103 610 14 561 29 z "},"ū":{"ha":686,"x_min":0,"x_max":0,"o":"m 521 792 l 147 792 l 147 753 l 521 753 z m 561 103 l 561 628 l 403 628 l 403 614 b 485 525 438 614 485 599 l 485 379 b 304 28 485 125 406 28 b 188 211 219 28 188 88 l 188 628 l 28 628 l 28 614 b 110 525 63 614 110 599 l 110 186 b 279 -11 110 53 164 -11 b 479 169 399 -11 463 83 l 485 169 l 485 0 l 644 0 l 644 14 b 561 103 610 14 561 29 z "},"ų":{"ha":686,"x_min":0,"x_max":0,"o":"m 513 0 l 644 0 l 644 14 b 561 103 610 14 561 29 l 561 628 l 403 628 l 403 614 b 485 525 438 614 485 599 l 485 379 b 304 28 485 125 406 28 b 188 211 219 28 188 88 l 188 628 l 28 628 l 28 614 b 110 525 63 614 110 599 l 110 186 b 279 -11 110 53 164 -11 b 479 169 399 -11 463 83 l 485 169 l 485 3 b 367 -156 419 -36 367 -92 b 490 -268 367 -224 414 -268 b 593 -239 529 -268 561 -257 l 553 -162 b 482 -193 531 -182 511 -193 b 422 -136 444 -193 422 -169 b 513 0 422 -82 454 -43 z "},"ů":{"ha":686,"x_min":0,"x_max":0,"o":"m 335 739 b 415 819 379 739 415 775 b 335 899 415 864 379 899 b 254 819 290 899 254 864 b 335 739 254 775 290 739 z m 335 865 b 382 819 361 865 382 844 b 335 772 382 793 361 772 b 289 819 308 772 289 793 b 335 865 289 844 308 865 z m 561 103 l 561 628 l 403 628 l 403 614 b 485 525 438 614 485 599 l 485 379 b 304 28 485 125 406 28 b 188 211 219 28 188 88 l 188 628 l 28 628 l 28 614 b 110 525 63 614 110 599 l 110 186 b 279 -11 110 53 164 -11 b 479 169 399 -11 463 83 l 485 169 l 485 0 l 644 0 l 644 14 b 561 103 610 14 561 29 z "},"v":{"ha":665,"x_min":0,"x_max":0,"o":"m 665 628 l 413 628 l 413 614 b 506 531 465 614 528 600 l 349 56 l 161 628 l 1 628 l 1 614 b 117 531 36 614 93 600 l 288 0 l 379 0 l 551 531 b 665 614 575 600 631 614 z "},"w":{"ha":1025,"x_min":0,"x_max":0,"o":"m 1025 628 l 789 628 l 789 614 b 869 529 835 614 889 600 l 740 67 l 550 628 l 390 628 l 390 614 b 507 531 425 614 483 600 l 514 510 l 361 61 l 165 628 l 4 628 l 4 614 b 121 531 39 614 97 600 l 306 0 l 389 0 l 536 442 l 685 0 l 767 0 l 915 529 b 1025 614 935 600 990 614 z "},"ẃ":{"ha":1025,"x_min":0,"x_max":0,"o":"m 629 857 l 564 922 b 401 714 531 844 492 776 l 410 700 b 629 857 503 735 571 783 z m 1025 628 l 789 628 l 789 614 b 869 529 835 614 889 600 l 740 67 l 550 628 l 390 628 l 390 614 b 507 531 425 614 483 600 l 514 510 l 361 61 l 165 628 l 4 628 l 4 614 b 121 531 39 614 97 600 l 306 0 l 389 0 l 536 442 l 685 0 l 767 0 l 915 529 b 1025 614 935 600 990 614 z "},"ŵ":{"ha":1025,"x_min":0,"x_max":0,"o":"m 515 835 l 578 749 l 661 749 l 529 899 l 499 899 l 368 749 l 450 749 z m 1025 628 l 789 628 l 789 614 b 869 529 835 614 889 600 l 740 67 l 550 628 l 390 628 l 390 614 b 507 531 425 614 483 600 l 514 510 l 361 61 l 165 628 l 4 628 l 4 614 b 121 531 39 614 97 600 l 306 0 l 389 0 l 536 442 l 685 0 l 767 0 l 915 529 b 1025 614 935 600 990 614 z "},"ẅ":{"ha":1025,"x_min":0,"x_max":0,"o":"m 492 835 l 411 915 l 331 835 l 411 753 z m 699 835 l 619 915 l 539 835 l 619 753 z m 1025 628 l 789 628 l 789 614 b 869 529 835 614 889 600 l 740 67 l 550 628 l 390 628 l 390 614 b 507 531 425 614 483 600 l 514 510 l 361 61 l 165 628 l 4 628 l 4 614 b 121 531 39 614 97 600 l 306 0 l 389 0 l 536 442 l 685 0 l 767 0 l 915 529 b 1025 614 935 600 990 614 z "},"ẁ":{"ha":1025,"x_min":0,"x_max":0,"o":"m 621 700 l 629 714 b 467 922 539 776 500 844 l 401 857 b 621 700 460 783 528 735 z m 1025 628 l 789 628 l 789 614 b 869 529 835 614 889 600 l 740 67 l 550 628 l 390 628 l 390 614 b 507 531 425 614 483 600 l 514 510 l 361 61 l 165 628 l 4 628 l 4 614 b 121 531 39 614 97 600 l 306 0 l 389 0 l 536 442 l 685 0 l 767 0 l 915 529 b 1025 614 935 600 990 614 z "},"x":{"ha":657,"x_min":0,"x_max":0,"o":"m 508 89 l 369 324 l 521 567 b 615 618 547 611 592 618 l 615 628 l 397 628 l 397 614 b 451 540 443 614 490 603 l 343 367 l 189 628 l 18 628 l 18 614 b 154 539 53 614 117 603 l 290 310 l 151 88 b 14 14 113 25 49 14 l 14 0 l 257 0 l 257 14 b 204 88 211 14 165 25 l 315 267 l 474 0 l 643 0 l 643 14 b 508 89 608 14 546 25 z "},"y":{"ha":674,"x_min":0,"x_max":0,"o":"m 674 628 l 419 628 l 419 614 b 513 531 472 614 536 600 l 358 56 l 172 628 l 8 628 l 8 614 b 124 531 43 614 100 600 l 294 0 l 340 0 l 293 -147 b 208 -251 268 -221 256 -251 b 146 -144 176 -251 136 -228 l 64 -133 b 200 -283 53 -222 107 -283 b 339 -147 285 -283 307 -244 l 560 531 b 674 614 582 600 639 614 z "},"ý":{"ha":674,"x_min":0,"x_max":0,"o":"m 454 857 l 389 922 b 226 714 356 844 317 776 l 235 700 b 454 857 328 735 396 783 z m 674 628 l 419 628 l 419 614 b 513 531 472 614 536 600 l 358 56 l 172 628 l 8 628 l 8 614 b 124 531 43 614 100 600 l 294 0 l 340 0 l 293 -147 b 208 -251 268 -221 256 -251 b 146 -144 176 -251 136 -228 l 64 -133 b 200 -283 53 -222 107 -283 b 339 -147 285 -283 307 -244 l 560 531 b 674 614 582 600 639 614 z "},"ŷ":{"ha":674,"x_min":0,"x_max":0,"o":"m 340 835 l 403 749 l 486 749 l 354 899 l 324 899 l 193 749 l 275 749 z m 674 628 l 419 628 l 419 614 b 513 531 472 614 536 600 l 358 56 l 172 628 l 8 628 l 8 614 b 124 531 43 614 100 600 l 294 0 l 340 0 l 293 -147 b 208 -251 268 -221 256 -251 b 146 -144 176 -251 136 -228 l 64 -133 b 200 -283 53 -222 107 -283 b 339 -147 285 -283 307 -244 l 560 531 b 674 614 582 600 639 614 z "},"ÿ":{"ha":674,"x_min":0,"x_max":0,"o":"m 317 835 l 236 915 l 156 835 l 236 753 z m 524 835 l 444 915 l 364 835 l 444 753 z m 674 628 l 419 628 l 419 614 b 513 531 472 614 536 600 l 358 56 l 172 628 l 8 628 l 8 614 b 124 531 43 614 100 600 l 294 0 l 340 0 l 293 -147 b 208 -251 268 -221 256 -251 b 146 -144 176 -251 136 -228 l 64 -133 b 200 -283 53 -222 107 -283 b 339 -147 285 -283 307 -244 l 560 531 b 674 614 582 600 639 614 z "},"ỳ":{"ha":674,"x_min":0,"x_max":0,"o":"m 446 700 l 454 714 b 292 922 364 776 325 844 l 226 857 b 446 700 285 783 353 735 z m 674 628 l 419 628 l 419 614 b 513 531 472 614 536 600 l 358 56 l 172 628 l 8 628 l 8 614 b 124 531 43 614 100 600 l 294 0 l 340 0 l 293 -147 b 208 -251 268 -221 256 -251 b 146 -144 176 -251 136 -228 l 64 -133 b 200 -283 53 -222 107 -283 b 339 -147 285 -283 307 -244 l 560 531 b 674 614 582 600 639 614 z "},"z":{"ha":638,"x_min":0,"x_max":0,"o":"m 574 208 b 451 54 560 147 525 57 l 161 40 b 263 163 193 74 236 125 l 581 617 l 581 628 l 174 628 b 99 636 147 628 110 631 l 92 608 l 50 418 l 63 415 b 189 583 78 483 115 582 l 486 593 b 396 490 449 558 417 521 l 111 74 b 42 0 85 36 60 13 l 476 0 b 539 -8 503 0 524 -1 l 549 33 l 588 204 z "},"ź":{"ha":638,"x_min":0,"x_max":0,"o":"m 449 857 l 383 922 b 221 714 350 844 311 776 l 229 700 b 449 857 322 735 390 783 z m 574 208 b 451 54 560 147 525 57 l 161 40 b 263 163 193 74 236 125 l 581 617 l 581 628 l 174 628 b 99 636 147 628 110 631 l 92 608 l 50 418 l 63 415 b 189 583 78 483 115 582 l 486 593 b 396 490 449 558 417 521 l 111 74 b 42 0 85 36 60 13 l 476 0 b 539 -8 503 0 524 -1 l 549 33 l 588 204 z "},"ž":{"ha":638,"x_min":0,"x_max":0,"o":"m 349 736 l 481 886 l 397 886 l 335 800 l 269 886 l 188 886 l 318 736 z m 574 208 b 451 54 560 147 525 57 l 161 40 b 263 163 193 74 236 125 l 581 617 l 581 628 l 174 628 b 99 636 147 628 110 631 l 92 608 l 50 418 l 63 415 b 189 583 78 483 115 582 l 486 593 b 396 490 449 558 417 521 l 111 74 b 42 0 85 36 60 13 l 476 0 b 539 -8 503 0 524 -1 l 549 33 l 588 204 z "},"ż":{"ha":638,"x_min":0,"x_max":0,"o":"m 415 835 l 335 915 l 254 835 l 335 753 z m 574 208 b 451 54 560 147 525 57 l 161 40 b 263 163 193 74 236 125 l 581 617 l 581 628 l 174 628 b 99 636 147 628 110 631 l 92 608 l 50 418 l 63 415 b 189 583 78 483 115 582 l 486 593 b 396 490 449 558 417 521 l 111 74 b 42 0 85 36 60 13 l 476 0 b 539 -8 503 0 524 -1 l 549 33 l 588 204 z "},"⁄":{"ha":422,"x_min":0,"x_max":0,"o":"m -60 47 l -18 39 l 481 838 l 439 846 z "},".":{"ha":236,"x_min":0,"x_max":0,"o":"m 38 69 l 118 -12 l 199 69 l 118 149 z "},",":{"ha":236,"x_min":0,"x_max":0,"o":"m 38 69 l 118 -12 l 118 -190 l 128 -190 l 199 69 l 118 149 z "},":":{"ha":236,"x_min":0,"x_max":0,"o":"m 38 433 l 118 351 l 199 433 l 118 513 z m 38 69 l 118 -12 l 199 69 l 118 149 z "},";":{"ha":236,"x_min":0,"x_max":0,"o":"m 38 433 l 118 351 l 199 433 l 118 513 z m 38 69 l 118 -12 l 118 -190 l 128 -190 l 199 69 l 118 149 z "},"…":{"ha":718,"x_min":0,"x_max":0,"o":"m 118 -12 l 199 69 l 118 149 l 38 69 z m 364 -12 l 444 69 l 364 149 l 283 69 z m 601 -12 l 681 69 l 601 149 l 519 69 z "},"!":{"ha":303,"x_min":0,"x_max":0,"o":"m 157 218 l 208 839 l 151 897 l 96 839 l 146 218 z m 71 69 l 151 -12 l 232 69 l 151 149 z "},"¡":{"ha":303,"x_min":0,"x_max":0,"o":"m 71 558 l 151 479 l 232 558 l 151 640 z m 157 410 l 146 410 l 96 -211 l 151 -269 l 208 -211 z "},"?":{"ha":679,"x_min":0,"x_max":0,"o":"m 349 899 b 71 669 186 899 71 782 b 93 553 71 629 79 585 l 197 567 b 165 681 181 593 165 633 b 349 857 165 789 242 857 b 521 665 471 857 521 774 b 319 451 521 517 408 460 l 300 450 l 335 222 l 339 222 l 393 394 l 350 419 b 607 675 503 432 607 519 b 349 899 607 783 526 899 z m 257 69 l 338 -12 l 418 69 l 338 149 z "},"¿":{"ha":679,"x_min":0,"x_max":0,"o":"m 422 558 l 342 640 l 261 558 l 342 479 z m 586 75 l 482 61 b 514 -53 499 35 514 -6 b 331 -229 514 -161 438 -229 b 158 -37 208 -229 158 -146 b 360 176 158 111 271 168 l 379 178 l 344 406 l 340 406 l 286 233 l 329 208 b 72 -47 176 196 72 108 b 331 -271 72 -156 153 -271 b 608 -42 493 -271 608 -154 b 586 75 608 -1 600 43 z "},"·":{"ha":303,"x_min":0,"x_max":0,"o":"m 38 317 l 118 235 l 199 317 l 118 396 z "},"•":{"ha":303,"x_min":0,"x_max":0,"o":"m 151 236 b 232 317 196 236 232 272 b 151 397 232 361 196 397 b 71 317 107 397 71 361 b 151 236 71 272 107 236 z "},"*":{"ha":386,"x_min":0,"x_max":0,"o":"m 42 668 l 68 622 l 186 714 l 167 565 l 219 565 l 200 714 l 318 622 l 344 668 l 207 726 l 344 782 l 318 828 l 200 739 l 219 885 l 167 885 l 186 739 l 68 828 l 42 782 l 179 726 z "},"‽":{"ha":1032,"x_min":0,"x_max":0,"o":"m 733 879 b 393 758 581 935 432 864 b 374 642 379 721 372 676 l 476 619 b 486 738 471 650 469 693 b 718 840 522 839 618 876 b 815 601 833 799 851 703 b 553 469 764 461 639 446 l 533 474 l 489 249 l 492 247 l 601 390 l 569 429 b 899 581 717 386 846 435 b 733 879 936 682 900 818 z m 374 244 l 210 846 l 136 881 l 104 807 l 364 240 z m 358 69 l 439 -12 l 519 69 l 439 149 z "},"#":{"ha":896,"x_min":0,"x_max":0,"o":"m 857 586 l 857 628 l 618 628 l 679 885 l 635 885 l 574 628 l 329 628 l 390 885 l 346 885 l 285 628 l 35 628 l 35 586 l 275 586 l 206 299 l -17 299 l -17 257 l 196 257 l 135 0 l 179 0 l 240 257 l 485 257 l 424 0 l 468 0 l 529 257 l 806 257 l 806 299 l 539 299 l 608 586 z m 494 299 l 250 299 l 319 586 l 564 586 z "},"/":{"ha":415,"x_min":0,"x_max":0,"o":"m 25 0 l 68 0 l 390 885 l 347 885 z "},"\\":{"ha":415,"x_min":0,"x_max":0,"o":"m 390 0 l 68 885 l 25 885 l 347 0 z "},"(":{"ha":379,"x_min":0,"x_max":0,"o":"m 28 424 b 344 -137 28 151 157 -54 l 351 -121 b 100 424 221 -49 100 89 b 351 956 100 758 206 876 l 344 971 b 28 424 143 885 28 696 z "},")":{"ha":379,"x_min":0,"x_max":0,"o":"m 351 424 b 35 971 351 696 236 885 l 28 956 b 279 424 174 876 279 758 b 28 -121 279 89 158 -49 l 35 -137 b 351 424 222 -54 351 151 z "},"{":{"ha":381,"x_min":0,"x_max":0,"o":"m 28 410 b 136 303 69 406 136 376 l 136 250 b 346 -137 136 94 183 -65 l 353 -121 b 210 329 225 -50 210 85 b 108 418 210 407 142 414 l 108 426 b 210 517 142 432 210 439 b 353 956 210 761 208 878 l 346 971 b 136 596 181 900 136 753 l 136 544 b 28 438 136 467 69 443 z "},"}":{"ha":381,"x_min":0,"x_max":0,"o":"m 353 410 l 353 438 b 244 544 311 443 244 467 l 244 596 b 35 971 244 753 200 900 l 28 956 b 171 517 172 878 171 761 b 272 426 171 439 239 432 l 272 418 b 171 329 239 414 171 407 b 28 -121 171 85 156 -50 l 35 -137 b 244 250 197 -65 244 94 l 244 303 b 353 410 244 376 311 406 z "},"[":{"ha":314,"x_min":0,"x_max":0,"o":"m 286 922 l 286 956 l 28 956 l 28 -121 l 286 -121 l 286 -89 l 85 -79 l 85 913 z "},"]":{"ha":314,"x_min":0,"x_max":0,"o":"m 286 956 l 28 956 l 28 922 l 229 913 l 229 -79 l 28 -89 l 28 -121 l 286 -121 z "},"-":{"ha":444,"x_min":0,"x_max":0,"o":"m 42 356 l 42 314 l 403 314 l 403 356 z "},"–":{"ha":542,"x_min":0,"x_max":0,"o":"m 42 356 l 42 314 l 500 314 l 500 356 z "},"—":{"ha":707,"x_min":0,"x_max":0,"o":"m 42 356 l 42 314 l 665 314 l 665 356 z "},"_":{"ha":444,"x_min":0,"x_max":0,"o":"m 42 0 l 42 -42 l 403 -42 l 403 0 z "},"‚":{"ha":236,"x_min":0,"x_max":0,"o":"m 38 69 l 118 -12 l 118 -190 l 128 -190 l 199 69 l 118 149 z "},"„":{"ha":236,"x_min":0,"x_max":0,"o":"m 118 149 l 38 69 l 118 -12 l 118 -190 l 128 -190 l 199 69 z "},"“":{"ha":426,"x_min":0,"x_max":0,"o":"m 199 656 l 118 738 l 118 915 l 108 915 l 38 656 l 118 576 z m 389 656 l 308 738 l 308 915 l 299 915 l 228 656 l 308 576 z "},"”":{"ha":426,"x_min":0,"x_max":0,"o":"m 38 836 l 118 754 l 118 576 l 128 576 l 199 836 l 118 915 z m 228 836 l 308 754 l 308 576 l 318 576 l 389 836 l 308 915 z "},"‘":{"ha":236,"x_min":0,"x_max":0,"o":"m 199 656 l 118 738 l 118 915 l 108 915 l 38 656 l 118 576 z "},"’":{"ha":236,"x_min":0,"x_max":0,"o":"m 38 842 l 118 760 l 118 582 l 128 582 l 199 842 l 118 921 z "},"«":{"ha":668,"x_min":0,"x_max":0,"o":"m 42 339 l 407 68 l 407 121 l 108 339 l 407 558 l 407 610 z m 261 339 l 626 68 l 626 121 l 328 339 l 626 558 l 626 610 z "},"»":{"ha":668,"x_min":0,"x_max":0,"o":"m 407 339 l 42 610 l 42 558 l 340 339 l 42 121 l 42 68 z m 626 339 l 261 610 l 261 558 l 560 339 l 261 121 l 261 68 z "},"‹":{"ha":449,"x_min":0,"x_max":0,"o":"m 42 339 l 407 68 l 407 121 l 108 339 l 407 558 l 407 610 z "},"›":{"ha":449,"x_min":0,"x_max":0,"o":"m 407 339 l 42 610 l 42 558 l 340 339 l 42 121 l 42 68 z "},"\"":{"ha":283,"x_min":0,"x_max":0,"o":"m 118 897 l 38 897 l 38 638 l 61 638 z m 246 897 l 165 897 l 165 638 l 188 638 z "},"'":{"ha":156,"x_min":0,"x_max":0,"o":"m 118 897 l 38 897 l 38 638 l 60 638 z "}," ":{"ha":308,"x_min":0,"x_max":0,"o":""},"¢":{"ha":422,"x_min":0,"x_max":0,"o":"m 371 353 b 236 239 357 301 321 239 b 190 247 219 239 204 242 l 260 610 b 314 522 294 597 314 565 b 310 485 314 511 313 496 l 375 478 b 378 504 376 486 378 496 b 265 638 378 571 335 624 l 281 717 l 256 719 l 240 640 l 231 640 b 42 421 122 640 42 571 b 158 214 42 308 83 239 l 143 139 l 169 136 l 183 208 b 226 204 197 206 211 204 b 381 350 335 204 371 296 z m 99 440 b 228 614 99 542 147 614 l 235 614 l 167 260 b 99 440 124 289 97 349 z "},"$":{"ha":701,"x_min":0,"x_max":0,"o":"m 432 489 l 383 507 l 440 843 b 606 567 538 808 585 714 l 619 567 l 610 806 b 449 888 565 846 511 874 l 467 994 l 426 1003 l 408 894 b 346 899 388 897 367 899 b 51 678 136 899 51 783 b 207 478 51 560 117 510 l 329 433 l 263 42 b 42 399 124 79 46 215 l 28 399 l 28 132 b 254 -3 65 72 139 15 l 236 -112 l 276 -119 l 296 -8 b 342 -10 310 -10 325 -10 b 646 246 483 -10 646 24 b 432 489 646 385 557 443 z m 240 558 b 138 690 164 586 138 638 b 342 860 138 789 210 860 b 401 854 363 860 383 858 l 344 521 z m 342 32 b 303 35 328 32 315 33 l 368 419 l 408 406 b 558 219 514 369 558 306 b 342 32 558 115 483 32 z "},"€":{"ha":935,"x_min":0,"x_max":0,"o":"m 872 271 b 586 35 850 156 749 35 b 269 372 413 35 290 143 l 674 372 l 674 413 l 267 413 l 267 444 b 268 485 267 458 267 472 l 715 485 l 715 525 l 271 525 b 579 854 292 749 408 854 b 865 618 742 854 843 733 l 886 622 b 564 899 864 739 801 899 b 183 525 343 899 207 764 l 83 525 l 83 485 l 181 485 b 179 444 179 472 179 458 l 179 413 l 42 413 l 42 372 l 182 372 b 571 -10 206 128 347 -10 b 893 267 808 -10 871 150 z "},"£":{"ha":742,"x_min":0,"x_max":0,"o":"m 685 167 b 557 51 672 119 638 51 l 110 51 b 285 350 232 101 285 218 b 278 443 285 381 282 411 l 590 443 l 590 483 l 272 483 b 253 664 263 543 253 603 b 429 860 253 792 315 860 b 621 706 522 860 590 815 l 690 771 b 425 899 636 846 561 899 b 169 660 247 899 169 778 b 188 483 169 597 179 540 l 42 483 l 42 443 l 193 443 b 201 333 197 407 201 371 b 42 51 201 219 150 113 l 42 0 l 656 0 l 664 32 l 700 163 z "},"¥":{"ha":921,"x_min":0,"x_max":0,"o":"m 865 885 l 554 885 l 554 869 b 649 786 617 869 689 857 l 446 419 l 218 885 l 28 885 l 28 869 b 178 783 69 869 142 856 l 371 397 l 194 397 l 194 357 l 392 357 l 393 354 l 393 285 l 194 285 l 194 244 l 393 244 l 393 113 b 293 15 393 32 335 15 l 293 0 l 574 0 l 574 15 b 475 113 532 15 475 32 l 475 244 l 700 244 l 700 285 l 475 285 l 475 357 l 700 357 l 700 397 l 497 397 l 713 786 b 865 869 751 857 824 869 z "},"+":{"ha":533,"x_min":0,"x_max":0,"o":"m 492 356 l 290 356 l 290 560 l 242 560 l 242 356 l 42 356 l 42 314 l 242 314 l 242 110 l 290 110 l 290 314 l 492 314 z "},"−":{"ha":542,"x_min":0,"x_max":0,"o":"m 42 356 l 42 314 l 500 314 l 500 356 z "},"×":{"ha":414,"x_min":0,"x_max":0,"o":"m 340 472 b 207 331 296 428 251 383 b 74 472 163 383 118 428 l 42 440 b 183 307 86 396 131 351 b 42 174 131 263 86 218 l 74 142 b 207 283 118 186 163 231 b 340 142 251 231 296 186 l 372 174 b 231 307 328 218 283 263 b 372 440 283 351 328 396 z "},"÷":{"ha":429,"x_min":0,"x_max":0,"o":"m 214 414 b 261 461 240 414 261 435 b 214 507 261 486 240 507 b 168 461 188 507 168 486 b 214 414 168 435 188 414 z m 42 356 l 42 314 l 388 314 l 388 356 z m 214 163 b 261 210 240 163 261 183 b 214 256 261 235 240 256 b 168 210 188 256 168 235 b 214 163 168 183 188 163 z "},"=":{"ha":388,"x_min":0,"x_max":0,"o":"m 42 383 l 346 383 l 346 425 l 42 425 z m 42 244 l 346 244 l 346 286 l 42 286 z "},"≠":{"ha":388,"x_min":0,"x_max":0,"o":"m 346 383 l 346 425 l 238 425 l 278 528 l 239 528 l 199 425 l 42 425 l 42 383 l 182 383 l 143 286 l 42 286 l 42 244 l 128 244 l 83 133 l 121 133 l 165 244 l 346 244 l 346 286 l 182 286 l 221 383 z "},">":{"ha":531,"x_min":0,"x_max":0,"o":"m 489 339 l 42 590 l 42 536 l 422 339 l 42 143 l 42 88 z "},"<":{"ha":531,"x_min":0,"x_max":0,"o":"m 42 339 l 489 88 l 489 143 l 108 339 l 489 536 l 489 590 z "},"≥":{"ha":531,"x_min":0,"x_max":0,"o":"m 489 339 l 42 590 l 42 536 l 422 339 l 42 143 l 42 88 l 485 88 l 485 128 l 114 128 z "},"≤":{"ha":531,"x_min":0,"x_max":0,"o":"m 489 590 l 42 339 l 417 128 l 46 128 l 46 88 l 489 88 l 489 143 l 108 339 l 489 536 z "},"±":{"ha":533,"x_min":0,"x_max":0,"o":"m 492 322 l 492 364 l 290 364 l 290 560 l 242 560 l 242 364 l 42 364 l 42 322 l 242 322 l 242 129 l 42 129 l 42 88 l 492 88 l 492 129 l 290 129 l 290 322 z "},"≈":{"ha":404,"x_min":0,"x_max":0,"o":"m 42 368 l 49 361 b 125 393 72 376 93 393 b 254 365 172 393 200 365 b 363 436 290 365 326 393 l 356 444 b 279 411 332 428 311 411 b 149 439 232 411 203 439 b 42 368 113 439 78 411 z m 42 239 l 49 232 b 125 264 72 247 93 264 b 254 236 172 264 200 236 b 363 307 290 236 326 264 l 356 315 b 279 282 332 299 311 282 b 149 310 232 282 203 310 b 42 239 113 310 78 282 z "},"~":{"ha":404,"x_min":0,"x_max":0,"o":"m 42 299 l 49 292 b 125 324 72 307 93 324 b 254 296 172 324 200 296 b 363 367 290 296 326 324 l 356 375 b 279 342 332 358 311 342 b 149 369 232 342 203 369 b 42 299 113 369 78 342 z "},"¬":{"ha":457,"x_min":0,"x_max":0,"o":"m 367 196 l 415 196 l 415 356 l 42 356 l 42 314 l 367 314 z "},"^":{"ha":446,"x_min":0,"x_max":0,"o":"m 42 549 l 97 549 l 229 885 l 349 549 l 404 549 l 244 935 l 214 935 z "},"∅":{"ha":447,"x_min":0,"x_max":0,"o":"m 339 463 l 406 549 l 385 561 l 321 478 b 224 507 293 496 260 507 b 49 333 126 507 49 429 b 107 201 49 281 71 233 l 42 117 l 61 104 l 126 188 b 224 158 154 169 188 158 b 397 333 319 158 397 236 b 339 463 397 385 375 431 z m 83 333 b 224 476 83 415 144 476 b 301 453 253 476 279 468 l 126 226 b 83 333 100 253 83 290 z m 224 189 b 144 213 194 189 167 197 l 319 438 b 363 333 346 413 363 375 b 224 189 363 250 301 189 z "},"∞":{"ha":735,"x_min":0,"x_max":0,"o":"m 42 338 b 213 164 42 228 122 164 b 388 314 308 164 375 233 b 529 164 393 233 432 164 b 693 338 625 164 693 228 b 524 513 693 449 613 513 b 349 361 426 513 360 443 b 207 513 342 443 303 513 b 42 338 110 513 42 449 z m 90 344 b 214 489 90 442 142 489 b 336 344 285 489 336 442 b 213 201 336 235 276 201 b 90 344 147 201 90 249 z m 399 331 b 524 475 399 442 458 475 b 644 331 588 475 644 428 b 522 188 644 235 593 188 b 399 331 450 188 399 235 z "},"∫":{"ha":461,"x_min":0,"x_max":0,"o":"m 188 60 l 314 775 b 394 876 325 836 356 876 b 414 872 401 876 410 875 l 419 878 l 360 969 b 274 779 293 921 286 849 l 147 64 b 65 -37 136 3 106 -37 b 47 -33 58 -37 51 -36 l 42 -37 l 100 -131 b 188 60 168 -82 175 -11 z "},"∏":{"ha":619,"x_min":0,"x_max":0,"o":"m 578 926 l 578 968 l 0 968 l 0 926 l 97 926 l 97 -36 b 14 -125 97 -110 49 -125 l 14 -139 l 229 -139 l 229 -125 b 146 -36 194 -125 146 -110 l 146 926 l 432 926 l 432 -36 b 349 -125 432 -110 383 -125 l 349 -139 l 564 -139 l 564 -125 b 481 -36 529 -125 481 -110 l 481 926 z "},"∑":{"ha":732,"x_min":0,"x_max":0,"o":"m 42 -139 l 650 -139 l 690 -18 l 676 -14 b 561 -97 667 -47 635 -97 l 93 -97 l 424 411 l 99 926 l 533 926 b 636 842 607 926 631 876 l 650 844 l 633 940 l 629 968 l 42 968 l 42 926 l 375 403 l 42 -97 z "},"√":{"ha":800,"x_min":0,"x_max":0,"o":"m 786 968 l 625 968 l 263 -94 l 93 385 l 42 385 l 228 -139 l 285 -139 l 650 926 l 786 926 z "},"∂":{"ha":608,"x_min":0,"x_max":0,"o":"m 174 890 l 171 876 b 483 446 350 846 469 708 b 267 640 453 553 376 640 b 42 325 140 640 42 550 b 317 -7 42 125 146 -7 b 567 386 506 -7 567 107 b 174 890 567 713 364 872 z m 317 32 b 126 324 193 32 126 136 b 285 601 126 503 186 601 b 485 276 400 601 485 432 b 317 32 485 129 440 32 z "},"%":{"ha":913,"x_min":0,"x_max":0,"o":"m 221 499 b 401 701 339 499 401 589 b 221 899 401 814 339 899 b 42 701 104 899 42 814 b 221 499 42 589 104 499 z m 121 0 l 174 0 l 790 885 l 738 885 z m 221 521 b 103 701 142 521 103 597 b 221 876 103 803 142 876 b 340 701 301 876 340 803 b 221 521 340 597 301 521 z m 690 -10 b 871 193 808 -10 871 81 b 690 390 871 306 808 390 b 511 193 574 390 511 306 b 690 -10 511 81 574 -10 z m 690 13 b 572 193 611 13 572 89 b 690 368 572 294 611 368 b 810 193 771 368 810 294 b 690 13 810 89 771 13 z "},"‰":{"ha":1356,"x_min":0,"x_max":0,"o":"m 221 499 b 401 701 339 499 401 589 b 221 899 401 814 339 899 b 42 701 104 899 42 814 b 221 499 42 589 104 499 z m 121 0 l 174 0 l 790 885 l 738 885 z m 221 521 b 103 701 142 521 103 597 b 221 876 103 803 142 876 b 340 701 301 876 340 803 b 221 521 340 597 301 521 z m 690 -10 b 871 193 808 -10 871 81 b 690 390 871 306 808 390 b 511 193 574 390 511 306 b 690 -10 511 81 574 -10 z m 1133 -10 b 1314 193 1251 -10 1314 81 b 1133 390 1314 306 1251 390 b 954 193 1017 390 954 306 b 1133 -10 954 81 1017 -10 z m 690 13 b 572 193 611 13 572 89 b 690 368 572 294 611 368 b 810 193 771 368 810 294 b 690 13 810 89 771 13 z m 1133 13 b 1015 193 1054 13 1015 89 b 1133 368 1015 294 1054 368 b 1253 193 1214 368 1253 294 b 1133 13 1253 89 1214 13 z "},"↑":{"ha":597,"x_min":0,"x_max":0,"o":"m 310 600 l 288 600 b 42 292 231 467 163 379 l 82 250 b 292 550 171 332 251 425 l 278 293 l 278 25 l 319 25 l 319 293 l 306 550 b 515 250 346 425 426 332 l 556 292 b 310 600 435 379 367 467 z "},"↗":{"ha":513,"x_min":0,"x_max":0,"o":"m 471 558 l 456 574 b 64 529 321 519 211 506 l 63 472 b 424 536 182 467 308 475 l 232 364 l 42 174 l 71 144 l 261 335 l 433 526 b 369 165 372 411 364 285 l 426 167 b 471 558 403 314 417 424 z "},"→":{"ha":658,"x_min":0,"x_max":0,"o":"m 308 590 l 267 550 b 567 340 349 461 442 381 l 310 354 l 42 354 l 42 313 l 310 313 l 567 326 b 267 117 442 286 349 206 l 308 76 b 617 322 396 197 483 265 l 617 344 b 308 590 483 401 396 469 z "},"↘":{"ha":513,"x_min":0,"x_max":0,"o":"m 426 549 l 369 550 b 433 189 364 431 372 304 l 261 381 l 71 571 l 42 542 l 232 351 l 424 179 b 63 243 308 240 182 249 l 64 186 b 456 142 211 210 321 196 l 471 157 b 426 549 417 292 403 401 z "},"↓":{"ha":597,"x_min":0,"x_max":0,"o":"m 515 444 b 306 144 426 363 346 269 l 319 401 l 319 669 l 278 669 l 278 401 l 292 144 b 82 444 251 269 171 363 l 42 403 b 288 94 163 315 231 228 l 310 94 b 556 403 367 228 435 315 z "},"↙":{"ha":513,"x_min":0,"x_max":0,"o":"m 89 179 l 281 351 l 471 542 l 442 571 l 251 381 l 79 189 b 143 550 140 304 149 431 l 86 549 b 42 157 110 401 96 292 l 57 142 b 449 186 192 196 301 210 l 450 243 b 89 179 331 249 204 240 z "},"←":{"ha":658,"x_min":0,"x_max":0,"o":"m 617 313 l 617 354 l 349 354 l 92 340 b 392 550 217 381 310 461 l 350 590 b 42 344 263 469 175 401 l 42 322 b 350 76 175 265 263 197 l 392 117 b 92 326 310 206 217 286 l 349 313 z "},"↖":{"ha":513,"x_min":0,"x_max":0,"o":"m 281 364 l 89 536 b 450 472 204 475 331 467 l 449 529 b 57 574 301 506 192 519 l 42 558 b 86 167 96 424 110 314 l 143 165 b 79 526 149 285 140 411 l 251 335 l 442 144 l 471 174 z "},"↔":{"ha":965,"x_min":0,"x_max":0,"o":"m 615 590 l 574 550 b 876 340 656 461 775 379 l 617 354 l 349 354 l 92 340 b 392 550 217 381 310 461 l 350 590 b 42 344 263 469 175 401 l 42 322 b 350 76 175 265 263 197 l 392 117 b 92 326 310 206 217 286 l 349 313 l 617 313 l 876 326 b 574 117 775 288 656 206 l 615 76 b 924 322 703 197 790 265 l 924 344 b 615 590 790 401 703 469 z "},"↕":{"ha":597,"x_min":0,"x_max":0,"o":"m 306 -8 l 319 249 l 319 392 l 306 649 b 515 363 346 524 426 438 l 556 404 b 310 699 435 485 367 565 l 288 699 b 42 404 231 565 163 485 l 82 363 b 292 649 171 438 251 524 l 278 392 l 278 249 l 292 -8 b 82 278 251 117 171 201 l 42 236 b 288 -58 163 154 231 75 l 310 -58 b 556 236 367 75 435 154 l 515 278 b 306 -8 426 201 346 117 z "},"◊":{"ha":531,"x_min":0,"x_max":0,"o":"m 303 885 l 228 885 l 42 444 l 228 0 l 303 0 l 489 444 z m 265 43 l 94 444 l 265 843 l 436 444 z "},"@":{"ha":1213,"x_min":0,"x_max":0,"o":"m 667 -229 l 1160 86 l 1151 101 l 653 -181 b 113 336 364 -149 113 -8 b 607 864 113 618 281 864 b 1100 336 932 864 1100 646 b 1096 268 1100 313 1099 286 l 808 107 l 808 367 b 604 638 808 482 800 638 b 406 479 451 638 406 551 b 414 429 406 461 408 444 l 494 436 l 494 443 b 472 497 479 447 472 469 b 599 601 472 547 503 601 b 739 408 721 601 739 503 l 738 376 l 404 346 b 396 246 399 310 396 275 b 540 49 396 100 464 49 b 732 232 661 49 710 153 l 739 232 l 739 24 l 1167 279 b 1171 336 1169 293 1171 311 b 607 901 1171 647 956 901 b 42 322 257 901 42 663 b 667 -229 42 -25 301 -189 z m 569 97 b 468 242 503 97 468 149 b 475 315 468 264 469 289 l 736 356 b 569 97 728 257 692 97 z "},"&":{"ha":790,"x_min":0,"x_max":0,"o":"m 42 288 b 383 -10 42 132 160 -10 b 626 69 486 -10 567 18 l 689 -25 l 706 -17 l 646 88 b 749 394 714 157 749 263 b 711 581 749 475 733 533 l 588 540 b 656 300 632 481 656 428 b 614 139 656 236 642 182 l 211 833 l 610 824 b 679 710 683 822 688 758 l 693 708 l 715 840 l 724 885 l 89 885 l 363 471 l 361 469 b 236 513 332 504 289 513 b 42 288 135 513 42 432 z m 129 288 b 289 469 129 393 207 469 b 410 400 332 469 375 450 l 597 115 b 383 33 550 63 478 33 b 129 288 210 33 129 146 z "},"¶":{"ha":582,"x_min":0,"x_max":0,"o":"m 83 719 b 311 494 83 578 185 501 l 311 -139 l 360 -139 l 360 942 l 311 942 b 83 719 185 942 83 858 z m 450 942 l 450 -139 l 499 -139 l 499 942 z "},"§":{"ha":757,"x_min":0,"x_max":0,"o":"m 382 -149 b 618 49 492 -149 618 -125 b 485 225 618 135 569 189 b 618 393 568 236 618 288 b 451 583 618 501 550 549 l 304 636 b 224 739 244 657 224 699 b 382 869 224 815 281 869 b 586 643 510 869 567 790 l 597 643 l 590 828 b 386 900 539 874 469 900 b 158 728 222 900 158 811 b 278 574 158 638 207 599 l 329 556 b 158 383 200 543 158 454 b 278 229 158 293 207 253 l 435 172 b 551 28 515 143 551 96 b 382 -117 551 -53 492 -117 b 150 178 235 -117 153 -1 l 139 178 l 139 -39 b 382 -149 175 -97 251 -149 z m 431 244 l 304 292 b 224 393 244 313 224 353 b 404 526 224 471 281 535 l 435 517 b 551 374 515 486 551 440 b 431 244 551 311 515 258 z "},"©":{"ha":1186,"x_min":0,"x_max":0,"o":"m 586 -217 b 1144 343 886 -217 1144 21 b 586 901 1144 665 886 901 b 42 343 286 901 42 665 b 586 -217 42 21 286 -217 z m 586 -179 b 113 343 329 -179 113 18 b 586 864 113 668 329 864 b 1074 343 843 864 1074 668 b 586 -179 1074 18 843 -179 z m 708 432 l 796 422 b 799 458 797 435 799 447 b 603 640 799 561 722 640 b 350 349 457 640 350 547 b 596 58 350 154 440 58 b 803 253 740 58 789 181 l 789 256 b 610 106 772 189 724 106 b 426 372 503 106 425 193 b 599 606 428 508 492 606 b 714 483 672 606 714 557 b 708 432 714 468 713 447 z "},"®":{"ha":608,"x_min":0,"x_max":0,"o":"m 301 901 b 42 636 154 901 42 792 b 301 369 42 479 154 369 b 567 636 449 369 567 479 b 301 901 567 792 449 901 z m 301 394 b 81 636 167 394 81 494 b 301 876 81 776 167 876 b 528 636 438 876 528 776 b 301 394 528 494 438 394 z m 292 650 l 292 651 b 314 647 300 649 306 647 b 390 713 365 647 390 676 b 310 776 390 753 360 776 l 203 776 l 203 771 b 235 742 217 771 235 767 l 235 538 b 203 507 235 513 217 507 l 203 503 l 290 503 l 290 507 b 260 538 278 507 260 513 l 260 669 l 375 529 b 351 507 392 511 371 507 l 351 503 l 425 503 l 425 507 l 347 601 b 292 650 328 624 310 639 z m 260 708 l 260 760 l 300 760 b 364 711 349 760 364 740 b 307 660 364 686 346 660 b 260 708 281 660 260 676 z "},"°":{"ha":396,"x_min":0,"x_max":0,"o":"m 199 586 b 354 743 285 586 354 656 b 199 899 354 829 285 899 b 42 743 111 899 42 829 b 199 586 42 656 111 586 z m 199 638 b 97 743 139 638 97 679 b 199 847 97 806 139 847 b 299 743 257 847 299 806 b 199 638 299 679 257 638 z "},"|":{"ha":132,"x_min":0,"x_max":0,"o":"m 90 968 l 42 968 l 42 -139 l 90 -139 z "},"¦":{"ha":132,"x_min":0,"x_max":0,"o":"m 42 579 l 90 579 l 90 968 l 42 968 z m 42 -139 l 90 -139 l 90 251 l 42 251 z "},"†":{"ha":426,"x_min":0,"x_max":0,"o":"m 385 781 l 238 781 l 238 965 l 189 965 l 189 781 l 42 781 l 42 740 l 189 740 l 189 258 l 238 258 l 238 740 l 385 740 z "},"‡":{"ha":426,"x_min":0,"x_max":0,"o":"m 385 740 l 385 781 l 238 781 l 238 965 l 189 965 l 189 781 l 42 781 l 42 740 l 189 740 l 189 483 l 42 483 l 42 443 l 189 443 l 189 258 l 238 258 l 238 443 l 385 443 l 385 483 l 238 483 l 238 740 z "},"̈":{"ha":0,"x_min":0,"x_max":0,"o":"m -357 753 l -276 835 l -357 915 l -437 835 z m -149 753 l -69 835 l -149 915 l -229 835 z "},"̇":{"ha":0,"x_min":0,"x_max":0,"o":"m -231 835 l -150 753 l -69 835 l -150 915 z "},"̀":{"ha":0,"x_min":0,"x_max":0,"o":"m -297 857 b -78 700 -239 783 -171 735 l -69 714 b -232 922 -160 776 -199 844 z "},"́":{"ha":0,"x_min":0,"x_max":0,"o":"m -69 857 l -135 922 b -297 714 -168 844 -207 776 l -289 700 b -69 857 -196 735 -128 783 z "},"̋":{"ha":0,"x_min":0,"x_max":0,"o":"m -181 897 l -261 897 l -261 711 l -237 711 z m -53 897 l -133 897 l -133 711 l -111 711 z "},"̂":{"ha":0,"x_min":0,"x_max":0,"o":"m -317 749 l -235 749 l -169 835 l -107 749 l -24 749 l -156 899 l -186 899 z "},"̌":{"ha":0,"x_min":0,"x_max":0,"o":"m -321 886 l -190 736 l -160 736 l -28 886 l -111 886 l -174 800 l -239 886 z "},"̆":{"ha":0,"x_min":0,"x_max":0,"o":"m -343 885 b -206 735 -347 785 -281 735 b -69 885 -132 735 -65 775 l -151 885 b -206 763 -132 811 -156 763 b -261 885 -257 763 -281 811 z "},"̊":{"ha":0,"x_min":0,"x_max":0,"o":"m -150 739 b -69 819 -106 739 -69 775 b -150 899 -69 864 -106 899 b -231 819 -194 899 -231 864 b -150 739 -231 775 -194 739 z m -150 772 b -196 819 -176 772 -196 793 b -150 865 -196 844 -176 865 b -103 819 -124 865 -103 844 b -150 772 -103 793 -124 772 z "},"̃":{"ha":0,"x_min":0,"x_max":0,"o":"m -390 746 l -383 739 b -307 771 -360 754 -339 771 b -178 743 -260 771 -232 743 b -69 814 -142 743 -106 771 l -76 822 b -153 789 -100 806 -121 789 b -283 817 -200 789 -229 817 b -390 746 -319 817 -354 789 z "},"̄":{"ha":0,"x_min":0,"x_max":0,"o":"m -443 792 l -443 753 l -69 753 l -69 792 z "},"̒":{"ha":0,"x_min":0,"x_max":0,"o":"m -69 1011 l -150 1093 l -150 1271 l -160 1271 l -231 1011 l -150 932 z "},"̦":{"ha":0,"x_min":0,"x_max":0,"o":"m -231 -126 l -150 -208 l -150 -386 l -140 -386 l -69 -126 l -150 -47 z "},"̧":{"ha":0,"x_min":0,"x_max":0,"o":"m -174 -76 b -194 -78 -181 -76 -187 -76 l -143 11 l -211 11 l -267 -108 b -204 -97 -247 -101 -232 -97 b -125 -175 -153 -97 -125 -129 b -186 -240 -125 -222 -151 -240 b -240 -192 -219 -240 -240 -219 b -229 -153 -240 -178 -236 -165 l -290 -140 b -297 -187 -297 -157 -297 -174 b -187 -278 -297 -236 -256 -278 b -69 -175 -115 -278 -69 -231 b -174 -76 -69 -96 -119 -76 z "},"̨":{"ha":0,"x_min":0,"x_max":0,"o":"m -28 -239 l -68 -162 b -139 -193 -90 -182 -110 -193 b -199 -136 -176 -193 -199 -169 b -92 13 -199 -76 -160 -36 l -107 18 b -254 -156 -185 -21 -254 -82 b -131 -268 -254 -224 -207 -268 b -28 -239 -92 -268 -60 -257 z "},"̵":{"ha":0,"x_min":0,"x_max":0,"o":"m -443 792 l -443 753 l -69 753 l -69 792 z "},"´":{"ha":367,"x_min":0,"x_max":0,"o":"m 339 857 l 274 922 b 111 714 240 844 201 776 l 119 700 b 339 857 213 735 281 783 z "},"˘":{"ha":413,"x_min":0,"x_max":0,"o":"m 69 885 b 207 735 65 785 132 735 b 343 885 281 735 347 775 l 261 885 b 207 763 281 811 257 763 b 151 885 156 763 132 811 z "},"ˇ":{"ha":432,"x_min":0,"x_max":0,"o":"m -18 886 l 113 736 l 143 736 l 275 886 l 192 886 l 129 800 l 64 886 z "},"¸":{"ha":367,"x_min":0,"x_max":0,"o":"m 193 -76 b 172 -78 186 -76 179 -76 l 224 11 l 156 11 l 100 -108 b 163 -97 119 -101 135 -97 b 242 -175 214 -97 242 -129 b 181 -240 242 -222 215 -240 b 126 -192 147 -240 126 -219 b 138 -153 126 -178 131 -165 l 76 -140 b 69 -187 69 -157 69 -174 b 179 -278 69 -236 111 -278 b 297 -175 251 -278 297 -231 b 193 -76 297 -96 247 -76 z "},"ˆ":{"ha":432,"x_min":0,"x_max":0,"o":"m 24 749 l 106 749 l 171 835 l 233 749 l 317 749 l 185 899 l 154 899 z "},"¨":{"ha":507,"x_min":0,"x_max":0,"o":"m 150 753 l 231 835 l 150 915 l 69 835 z m 358 753 l 438 835 l 358 915 l 278 835 z "},"˙":{"ha":300,"x_min":0,"x_max":0,"o":"m 69 835 l 150 753 l 231 835 l 150 915 z "},"`":{"ha":367,"x_min":0,"x_max":0,"o":"m 69 857 b 289 700 128 783 196 735 l 297 714 b 135 922 207 776 168 844 z "},"˝":{"ha":347,"x_min":0,"x_max":0,"o":"m 167 897 l 86 897 l 86 711 l 110 711 z m 294 897 l 214 897 l 214 711 l 236 711 z "},"¯":{"ha":513,"x_min":0,"x_max":0,"o":"m 69 792 l 69 753 l 443 753 l 443 792 z "},"˛":{"ha":282,"x_min":0,"x_max":0,"o":"m 254 -239 l 214 -162 b 143 -193 192 -182 172 -193 b 83 -136 106 -193 83 -169 b 190 13 83 -76 122 -36 l 175 18 b 28 -156 97 -21 28 -82 b 151 -268 28 -224 75 -268 b 254 -239 190 -268 222 -257 z "},"˚":{"ha":300,"x_min":0,"x_max":0,"o":"m 150 739 b 231 819 194 739 231 775 b 150 899 231 864 194 899 b 69 819 106 899 69 864 b 150 739 69 775 106 739 z m 150 772 b 104 819 124 772 104 793 b 150 865 104 844 124 865 b 197 819 176 865 197 844 b 150 772 197 793 176 772 z "},"˜":{"ha":460,"x_min":0,"x_max":0,"o":"m 69 746 l 76 739 b 153 771 100 754 121 771 b 282 743 200 771 228 743 b 390 814 318 743 354 771 l 383 822 b 307 789 360 806 339 789 b 176 817 260 789 231 817 b 69 746 140 817 106 789 z "}}}
